<svg width="1156" height="463" viewBox="0 0 1156 463" fill="none" xmlns="http://www.w3.org/2000/svg">
<circle cx="200" cy="263" r="197" fill="white" stroke="#C4C4C4" stroke-width="6"/>
<path d="M487.92 235H471.12L433.08 177.52V235H416.28V151.12H433.08L471.12 208.72V151.12H487.92V235ZM566.322 200.32C566.322 202.72 566.162 204.88 565.842 206.8H517.242C517.642 211.6 519.322 215.36 522.282 218.08C525.242 220.8 528.882 222.16 533.202 222.16C539.442 222.16 543.882 219.48 546.522 214.12H564.642C562.722 220.52 559.042 225.8 553.602 229.96C548.162 234.04 541.482 236.08 533.562 236.08C527.162 236.08 521.402 234.68 516.282 231.88C511.242 229 507.282 224.96 504.402 219.76C501.602 214.56 500.202 208.56 500.202 201.76C500.202 194.88 501.602 188.84 504.402 183.64C507.202 178.44 511.122 174.44 516.162 171.64C521.202 168.84 527.002 167.44 533.562 167.44C539.882 167.44 545.522 168.8 550.482 171.52C555.522 174.24 559.402 178.12 562.122 183.16C564.922 188.12 566.322 193.84 566.322 200.32ZM548.922 195.52C548.842 191.2 547.282 187.76 544.242 185.2C541.202 182.56 537.482 181.24 533.082 181.24C528.922 181.24 525.402 182.52 522.522 185.08C519.722 187.56 518.002 191.04 517.362 195.52H548.922ZM641.345 168.52V235H624.425V226.6C622.265 229.48 619.425 231.76 615.905 233.44C612.465 235.04 608.705 235.84 604.625 235.84C599.425 235.84 594.825 234.76 590.825 232.6C586.825 230.36 583.665 227.12 581.345 222.88C579.105 218.56 577.985 213.44 577.985 207.52V168.52H594.785V205.12C594.785 210.4 596.105 214.48 598.745 217.36C601.385 220.16 604.985 221.56 609.545 221.56C614.185 221.56 617.825 220.16 620.465 217.36C623.105 214.48 624.425 210.4 624.425 205.12V168.52H641.345ZM674.721 178.84C676.881 175.32 679.681 172.56 683.121 170.56C686.641 168.56 690.641 167.56 695.121 167.56V185.2H690.681C685.401 185.2 681.401 186.44 678.681 188.92C676.041 191.4 674.721 195.72 674.721 201.88V235H657.921V168.52H674.721V178.84ZM702.116 201.52C702.116 194.8 703.436 188.84 706.076 183.64C708.796 178.44 712.436 174.44 716.996 171.64C721.636 168.84 726.796 167.44 732.476 167.44C737.436 167.44 741.756 168.44 745.436 170.44C749.196 172.44 752.196 174.96 754.436 178V168.52H771.356V235H754.436V225.28C752.276 228.4 749.276 231 745.436 233.08C741.676 235.08 737.316 236.08 732.356 236.08C726.756 236.08 721.636 234.64 716.996 231.76C712.436 228.88 708.796 224.84 706.076 219.64C703.436 214.36 702.116 208.32 702.116 201.52ZM754.436 201.76C754.436 197.68 753.636 194.2 752.036 191.32C750.436 188.36 748.276 186.12 745.556 184.6C742.836 183 739.916 182.2 736.796 182.2C733.676 182.2 730.796 182.96 728.156 184.48C725.516 186 723.356 188.24 721.676 191.2C720.076 194.08 719.276 197.52 719.276 201.52C719.276 205.52 720.076 209.04 721.676 212.08C723.356 215.04 725.516 217.32 728.156 218.92C730.876 220.52 733.756 221.32 736.796 221.32C739.916 221.32 742.836 220.56 745.556 219.04C748.276 217.44 750.436 215.2 752.036 212.32C753.636 209.36 754.436 205.84 754.436 201.76ZM804.564 146.2V235H787.764V146.2H804.564Z" fill="black"/>
<g clip-path="url(#clip0)">
<path d="M200.11 158.8L201.4 18.24" stroke="#9E2D23" stroke-width="4" stroke-miterlimit="10"/>
<path d="M219.17 1.48L200.75 18.24L182.34 1.48" stroke="#9E2D23" stroke-width="4" stroke-miterlimit="10"/>
<path d="M321.83 356.73H201.92V294.19" stroke="#9E2D23" stroke-width="4" stroke-miterlimit="10"/>
<path d="M321.83 356.73L343.11 338.03V375.43L321.83 356.73Z" fill="#CA3D32" stroke="#9E2D23" stroke-width="4" stroke-miterlimit="10"/>
<path d="M261.88 294.19L200.62 158.8H199.29L138.04 294.19H261.88Z" fill="#CA3D32" stroke="#9E2D23" stroke-width="4" stroke-miterlimit="10"/>
<path d="M300.23 212.32L300.88 142.04" stroke="#6F417C" stroke-width="4" stroke-miterlimit="10"/>
<path d="M309.73 133.01L300.53 141.39L291.32 133.01" stroke="#6F417C" stroke-width="4" stroke-miterlimit="10"/>
<path d="M361.46 310.63H301.5V279.36" stroke="#6F417C" stroke-width="4" stroke-miterlimit="10"/>
<path d="M361.46 310.63L372.1 301.29V319.98L361.46 310.63Z" fill="#9359A3" stroke="#6F417C" stroke-width="4" stroke-miterlimit="10"/>
<path d="M331.48 279.36L300.86 211.67H300.19L269.57 279.36H331.48Z" fill="#9359A3" stroke="#6F417C" stroke-width="4" stroke-miterlimit="10"/>
<path d="M102.76 212.32L103.41 142.04" stroke="#267735" stroke-width="4" stroke-miterlimit="10"/>
<path d="M164 310.63H104.04V279.36" stroke="#267735" stroke-width="4" stroke-miterlimit="10"/>
<path d="M164 310.63L174.63 301.29V319.98L164 310.63Z" fill="#389746" stroke="#267735" stroke-width="4" stroke-miterlimit="10"/>
<path d="M134.02 279.36L103.39 211.67H102.73L72.1 279.36H134.02Z" fill="#389746" stroke="#267735" stroke-width="4" stroke-miterlimit="10"/>
<path d="M93.85 133.12L103.06 141.5L112.27 133.12" stroke="#267735" stroke-width="4" stroke-miterlimit="10"/>
<path d="M211.71 287.34C224.059 287.34 234.07 277.329 234.07 264.98C234.07 252.631 224.059 242.62 211.71 242.62C199.361 242.62 189.35 252.631 189.35 264.98C189.35 277.329 199.361 287.34 211.71 287.34Z" fill="white" stroke="#9E2D23" stroke-width="4" stroke-miterlimit="10"/>
<path d="M108.19 274.46C114.365 274.46 119.37 269.455 119.37 263.28C119.37 257.105 114.365 252.1 108.19 252.1C102.015 252.1 97.01 257.105 97.01 263.28C97.01 269.455 102.015 274.46 108.19 274.46Z" fill="white" stroke="#267735" stroke-width="4" stroke-miterlimit="10"/>
<path d="M305.55 274.46C311.725 274.46 316.73 269.455 316.73 263.28C316.73 257.105 311.725 252.1 305.55 252.1C299.375 252.1 294.37 257.105 294.37 263.28C294.37 269.455 299.375 274.46 305.55 274.46Z" fill="white" stroke="#6F417C" stroke-width="4" stroke-miterlimit="10"/>
</g>
<path d="M576.56 269.24C585.36 269.24 593.08 270.96 599.72 274.4C606.44 277.84 611.6 282.76 615.2 289.16C618.88 295.48 620.72 302.84 620.72 311.24C620.72 319.64 618.88 327 615.2 333.32C611.6 339.56 606.44 344.4 599.72 347.84C593.08 351.28 585.36 353 576.56 353H547.28V269.24H576.56ZM575.96 338.72C584.76 338.72 591.56 336.32 596.36 331.52C601.16 326.72 603.56 319.96 603.56 311.24C603.56 302.52 601.16 295.72 596.36 290.84C591.56 285.88 584.76 283.4 575.96 283.4H564.08V338.72H575.96ZM696.896 286.52L655.736 384.44H637.856L652.256 351.32L625.616 286.52H644.456L661.616 332.96L679.016 286.52H696.896ZM742.792 285.56C750.712 285.56 757.112 288.08 761.992 293.12C766.872 298.08 769.312 305.04 769.312 314V353H752.512V316.28C752.512 311 751.192 306.96 748.552 304.16C745.912 301.28 742.312 299.84 737.752 299.84C733.112 299.84 729.432 301.28 726.712 304.16C724.072 306.96 722.752 311 722.752 316.28V353H705.952V286.52H722.752V294.8C724.992 291.92 727.832 289.68 731.272 288.08C734.792 286.4 738.632 285.56 742.792 285.56ZM780.968 319.52C780.968 312.8 782.288 306.84 784.928 301.64C787.648 296.44 791.288 292.44 795.848 289.64C800.488 286.84 805.648 285.44 811.328 285.44C816.288 285.44 820.608 286.44 824.288 288.44C828.048 290.44 831.048 292.96 833.288 296V286.52H850.208V353H833.288V343.28C831.128 346.4 828.128 349 824.288 351.08C820.528 353.08 816.168 354.08 811.208 354.08C805.608 354.08 800.488 352.64 795.848 349.76C791.288 346.88 787.648 342.84 784.928 337.64C782.288 332.36 780.968 326.32 780.968 319.52ZM833.288 319.76C833.288 315.68 832.488 312.2 830.888 309.32C829.288 306.36 827.128 304.12 824.408 302.6C821.688 301 818.768 300.2 815.648 300.2C812.528 300.2 809.648 300.96 807.008 302.48C804.368 304 802.208 306.24 800.528 309.2C798.928 312.08 798.128 315.52 798.128 319.52C798.128 323.52 798.928 327.04 800.528 330.08C802.208 333.04 804.368 335.32 807.008 336.92C809.728 338.52 812.608 339.32 815.648 339.32C818.768 339.32 821.688 338.56 824.408 337.04C827.128 335.44 829.288 333.2 830.888 330.32C832.488 327.36 833.288 323.84 833.288 319.76ZM949.176 285.56C957.336 285.56 963.896 288.08 968.856 293.12C973.896 298.08 976.416 305.04 976.416 314V353H959.616V316.28C959.616 311.08 958.296 307.12 955.656 304.4C953.016 301.6 949.416 300.2 944.856 300.2C940.296 300.2 936.656 301.6 933.936 304.4C931.296 307.12 929.976 311.08 929.976 316.28V353H913.176V316.28C913.176 311.08 911.856 307.12 909.216 304.4C906.576 301.6 902.976 300.2 898.416 300.2C893.776 300.2 890.096 301.6 887.376 304.4C884.736 307.12 883.416 311.08 883.416 316.28V353H866.616V286.52H883.416V294.56C885.576 291.76 888.336 289.56 891.696 287.96C895.136 286.36 898.896 285.56 902.976 285.56C908.176 285.56 912.816 286.68 916.896 288.92C920.976 291.08 924.136 294.2 926.376 298.28C928.536 294.44 931.656 291.36 935.736 289.04C939.896 286.72 944.376 285.56 949.176 285.56ZM1000.88 278.6C997.918 278.6 995.438 277.68 993.438 275.84C991.518 273.92 990.558 271.56 990.558 268.76C990.558 265.96 991.518 263.64 993.438 261.8C995.438 259.88 997.918 258.92 1000.88 258.92C1003.84 258.92 1006.28 259.88 1008.2 261.8C1010.2 263.64 1011.2 265.96 1011.2 268.76C1011.2 271.56 1010.2 273.92 1008.2 275.84C1006.28 277.68 1003.84 278.6 1000.88 278.6ZM1009.16 286.52V353H992.358V286.52H1009.16ZM1021.44 319.76C1021.44 312.88 1022.84 306.88 1025.64 301.76C1028.44 296.56 1032.32 292.56 1037.28 289.76C1042.24 286.88 1047.92 285.44 1054.32 285.44C1062.56 285.44 1069.36 287.52 1074.72 291.68C1080.16 295.76 1083.8 301.52 1085.64 308.96H1067.52C1066.56 306.08 1064.92 303.84 1062.6 302.24C1060.36 300.56 1057.56 299.72 1054.2 299.72C1049.4 299.72 1045.6 301.48 1042.8 305C1040 308.44 1038.6 313.36 1038.6 319.76C1038.6 326.08 1040 331 1042.8 334.52C1045.6 337.96 1049.4 339.68 1054.2 339.68C1061 339.68 1065.44 336.64 1067.52 330.56H1085.64C1083.8 337.76 1080.16 343.48 1074.72 347.72C1069.28 351.96 1062.48 354.08 1054.32 354.08C1047.92 354.08 1042.24 352.68 1037.28 349.88C1032.32 347 1028.44 343 1025.64 337.88C1022.84 332.68 1021.44 326.64 1021.44 319.76ZM1123.38 354.08C1117.94 354.08 1113.06 353.12 1108.74 351.2C1104.42 349.2 1100.98 346.52 1098.42 343.16C1095.94 339.8 1094.58 336.08 1094.34 332H1111.26C1111.58 334.56 1112.82 336.68 1114.98 338.36C1117.22 340.04 1119.98 340.88 1123.26 340.88C1126.46 340.88 1128.94 340.24 1130.7 338.96C1132.54 337.68 1133.46 336.04 1133.46 334.04C1133.46 331.88 1132.34 330.28 1130.1 329.24C1127.94 328.12 1124.46 326.92 1119.66 325.64C1114.7 324.44 1110.62 323.2 1107.42 321.92C1104.3 320.64 1101.58 318.68 1099.26 316.04C1097.02 313.4 1095.9 309.84 1095.9 305.36C1095.9 301.68 1096.94 298.32 1099.02 295.28C1101.18 292.24 1104.22 289.84 1108.14 288.08C1112.14 286.32 1116.82 285.44 1122.18 285.44C1130.1 285.44 1136.42 287.44 1141.14 291.44C1145.86 295.36 1148.46 300.68 1148.94 307.4H1132.86C1132.62 304.76 1131.5 302.68 1129.5 301.16C1127.58 299.56 1124.98 298.76 1121.7 298.76C1118.66 298.76 1116.3 299.32 1114.62 300.44C1113.02 301.56 1112.22 303.12 1112.22 305.12C1112.22 307.36 1113.34 309.08 1115.58 310.28C1117.82 311.4 1121.3 312.56 1126.02 313.76C1130.82 314.96 1134.78 316.2 1137.9 317.48C1141.02 318.76 1143.7 320.76 1145.94 323.48C1148.26 326.12 1149.46 329.64 1149.54 334.04C1149.54 337.88 1148.46 341.32 1146.3 344.36C1144.22 347.4 1141.18 349.8 1137.18 351.56C1133.26 353.24 1128.66 354.08 1123.38 354.08Z" fill="black"/>
<defs>
<clipPath id="clip0">
<rect width="305.1" height="379.85" fill="white" transform="translate(69)"/>
</clipPath>
</defs>
</svg>
