<?xml version="1.0" encoding="utf-8"?>
<svg xmlns="http://www.w3.org/2000/svg" xmlns:xlink="http://www.w3.org/1999/xlink" width="600" height="400" viewBox="0 0 2400 1600">
<defs>
  <clipPath id="clip620">
    <rect x="0" y="0" width="2400" height="1600"/>
  </clipPath>
</defs>
<path clip-path="url(#clip620)" d="
M0 1600 L2400 1600 L2400 0 L0 0  Z
  " fill="#ffffff" fill-rule="evenodd" fill-opacity="1"/>
<defs>
  <clipPath id="clip621">
    <rect x="480" y="0" width="1681" height="1600"/>
  </clipPath>
</defs>
<path clip-path="url(#clip620)" d="
M156.598 1486.45 L2352.76 1486.45 L2352.76 47.2441 L156.598 47.2441  Z
  " fill="#ffffff" fill-rule="evenodd" fill-opacity="1"/>
<defs>
  <clipPath id="clip622">
    <rect x="156" y="47" width="2197" height="1440"/>
  </clipPath>
</defs>
<polyline clip-path="url(#clip622)" style="stroke:#000000; stroke-linecap:butt; stroke-linejoin:round; stroke-width:2; stroke-opacity:0.1; fill:none" points="
  218.754,1486.45 218.754,47.2441 
  "/>
<polyline clip-path="url(#clip622)" style="stroke:#000000; stroke-linecap:butt; stroke-linejoin:round; stroke-width:2; stroke-opacity:0.1; fill:none" points="
  736.715,1486.45 736.715,47.2441 
  "/>
<polyline clip-path="url(#clip622)" style="stroke:#000000; stroke-linecap:butt; stroke-linejoin:round; stroke-width:2; stroke-opacity:0.1; fill:none" points="
  1254.68,1486.45 1254.68,47.2441 
  "/>
<polyline clip-path="url(#clip622)" style="stroke:#000000; stroke-linecap:butt; stroke-linejoin:round; stroke-width:2; stroke-opacity:0.1; fill:none" points="
  1772.64,1486.45 1772.64,47.2441 
  "/>
<polyline clip-path="url(#clip622)" style="stroke:#000000; stroke-linecap:butt; stroke-linejoin:round; stroke-width:2; stroke-opacity:0.1; fill:none" points="
  2290.6,1486.45 2290.6,47.2441 
  "/>
<polyline clip-path="url(#clip620)" style="stroke:#000000; stroke-linecap:butt; stroke-linejoin:round; stroke-width:4; stroke-opacity:1; fill:none" points="
  156.598,1486.45 2352.76,1486.45 
  "/>
<polyline clip-path="url(#clip620)" style="stroke:#000000; stroke-linecap:butt; stroke-linejoin:round; stroke-width:4; stroke-opacity:1; fill:none" points="
  218.754,1486.45 218.754,1469.18 
  "/>
<polyline clip-path="url(#clip620)" style="stroke:#000000; stroke-linecap:butt; stroke-linejoin:round; stroke-width:4; stroke-opacity:1; fill:none" points="
  736.715,1486.45 736.715,1469.18 
  "/>
<polyline clip-path="url(#clip620)" style="stroke:#000000; stroke-linecap:butt; stroke-linejoin:round; stroke-width:4; stroke-opacity:1; fill:none" points="
  1254.68,1486.45 1254.68,1469.18 
  "/>
<polyline clip-path="url(#clip620)" style="stroke:#000000; stroke-linecap:butt; stroke-linejoin:round; stroke-width:4; stroke-opacity:1; fill:none" points="
  1772.64,1486.45 1772.64,1469.18 
  "/>
<polyline clip-path="url(#clip620)" style="stroke:#000000; stroke-linecap:butt; stroke-linejoin:round; stroke-width:4; stroke-opacity:1; fill:none" points="
  2290.6,1486.45 2290.6,1469.18 
  "/>
<path clip-path="url(#clip620)" d="M218.754 1515.64 Q215.143 1515.64 213.314 1519.2 Q211.508 1522.75 211.508 1529.87 Q211.508 1536.98 213.314 1540.55 Q215.143 1544.09 218.754 1544.09 Q222.388 1544.09 224.193 1540.55 Q226.022 1536.98 226.022 1529.87 Q226.022 1522.75 224.193 1519.2 Q222.388 1515.64 218.754 1515.64 M218.754 1511.93 Q224.564 1511.93 227.619 1516.54 Q230.698 1521.12 230.698 1529.87 Q230.698 1538.6 227.619 1543.21 Q224.564 1547.79 218.754 1547.79 Q212.943 1547.79 209.865 1543.21 Q206.809 1538.6 206.809 1529.87 Q206.809 1521.12 209.865 1516.54 Q212.943 1511.93 218.754 1511.93 Z" fill="#000000" fill-rule="evenodd" fill-opacity="1" /><path clip-path="url(#clip620)" d="M715.986 1543.18 L732.306 1543.18 L732.306 1547.12 L710.361 1547.12 L710.361 1543.18 Q713.023 1540.43 717.607 1535.8 Q722.213 1531.15 723.394 1529.81 Q725.639 1527.28 726.519 1525.55 Q727.421 1523.79 727.421 1522.1 Q727.421 1519.34 725.477 1517.61 Q723.556 1515.87 720.454 1515.87 Q718.255 1515.87 715.801 1516.63 Q713.371 1517.4 710.593 1518.95 L710.593 1514.23 Q713.417 1513.09 715.871 1512.51 Q718.324 1511.93 720.361 1511.93 Q725.732 1511.93 728.926 1514.62 Q732.12 1517.31 732.12 1521.8 Q732.12 1523.93 731.31 1525.85 Q730.523 1527.74 728.417 1530.34 Q727.838 1531.01 724.736 1534.23 Q721.634 1537.42 715.986 1543.18 Z" fill="#000000" fill-rule="evenodd" fill-opacity="1" /><path clip-path="url(#clip620)" d="M742.167 1512.56 L760.523 1512.56 L760.523 1516.5 L746.449 1516.5 L746.449 1524.97 Q747.468 1524.62 748.486 1524.46 Q749.505 1524.27 750.523 1524.27 Q756.31 1524.27 759.69 1527.44 Q763.069 1530.62 763.069 1536.03 Q763.069 1541.61 759.597 1544.71 Q756.125 1547.79 749.806 1547.79 Q747.63 1547.79 745.361 1547.42 Q743.116 1547.05 740.708 1546.31 L740.708 1541.61 Q742.792 1542.74 745.014 1543.3 Q747.236 1543.86 749.713 1543.86 Q753.718 1543.86 756.056 1541.75 Q758.393 1539.64 758.393 1536.03 Q758.393 1532.42 756.056 1530.31 Q753.718 1528.21 749.713 1528.21 Q747.838 1528.21 745.963 1528.62 Q744.111 1529.04 742.167 1529.92 L742.167 1512.56 Z" fill="#000000" fill-rule="evenodd" fill-opacity="1" /><path clip-path="url(#clip620)" d="M1229.38 1512.56 L1247.73 1512.56 L1247.73 1516.5 L1233.66 1516.5 L1233.66 1524.97 Q1234.68 1524.62 1235.7 1524.46 Q1236.71 1524.27 1237.73 1524.27 Q1243.52 1524.27 1246.9 1527.44 Q1250.28 1530.62 1250.28 1536.03 Q1250.28 1541.61 1246.81 1544.71 Q1243.33 1547.79 1237.02 1547.79 Q1234.84 1547.79 1232.57 1547.42 Q1230.33 1547.05 1227.92 1546.31 L1227.92 1541.61 Q1230 1542.74 1232.22 1543.3 Q1234.45 1543.86 1236.92 1543.86 Q1240.93 1543.86 1243.27 1541.75 Q1245.6 1539.64 1245.6 1536.03 Q1245.6 1532.42 1243.27 1530.31 Q1240.93 1528.21 1236.92 1528.21 Q1235.05 1528.21 1233.17 1528.62 Q1231.32 1529.04 1229.38 1529.92 L1229.38 1512.56 Z" fill="#000000" fill-rule="evenodd" fill-opacity="1" /><path clip-path="url(#clip620)" d="M1269.49 1515.64 Q1265.88 1515.64 1264.05 1519.2 Q1262.25 1522.75 1262.25 1529.87 Q1262.25 1536.98 1264.05 1540.55 Q1265.88 1544.09 1269.49 1544.09 Q1273.13 1544.09 1274.93 1540.55 Q1276.76 1536.98 1276.76 1529.87 Q1276.76 1522.75 1274.93 1519.2 Q1273.13 1515.64 1269.49 1515.64 M1269.49 1511.93 Q1275.3 1511.93 1278.36 1516.54 Q1281.44 1521.12 1281.44 1529.87 Q1281.44 1538.6 1278.36 1543.21 Q1275.3 1547.79 1269.49 1547.79 Q1263.68 1547.79 1260.6 1543.21 Q1257.55 1538.6 1257.55 1529.87 Q1257.55 1521.12 1260.6 1516.54 Q1263.68 1511.93 1269.49 1511.93 Z" fill="#000000" fill-rule="evenodd" fill-opacity="1" /><path clip-path="url(#clip620)" d="M1746.49 1512.56 L1768.72 1512.56 L1768.72 1514.55 L1756.17 1547.12 L1751.28 1547.12 L1763.09 1516.5 L1746.49 1516.5 L1746.49 1512.56 Z" fill="#000000" fill-rule="evenodd" fill-opacity="1" /><path clip-path="url(#clip620)" d="M1777.88 1512.56 L1796.24 1512.56 L1796.24 1516.5 L1782.16 1516.5 L1782.16 1524.97 Q1783.18 1524.62 1784.2 1524.46 Q1785.22 1524.27 1786.24 1524.27 Q1792.03 1524.27 1795.4 1527.44 Q1798.78 1530.62 1798.78 1536.03 Q1798.78 1541.61 1795.31 1544.71 Q1791.84 1547.79 1785.52 1547.79 Q1783.34 1547.79 1781.08 1547.42 Q1778.83 1547.05 1776.42 1546.31 L1776.42 1541.61 Q1778.51 1542.74 1780.73 1543.3 Q1782.95 1543.86 1785.43 1543.86 Q1789.43 1543.86 1791.77 1541.75 Q1794.11 1539.64 1794.11 1536.03 Q1794.11 1532.42 1791.77 1530.31 Q1789.43 1528.21 1785.43 1528.21 Q1783.55 1528.21 1781.68 1528.62 Q1779.83 1529.04 1777.88 1529.92 L1777.88 1512.56 Z" fill="#000000" fill-rule="evenodd" fill-opacity="1" /><path clip-path="url(#clip620)" d="M2250.21 1543.18 L2257.85 1543.18 L2257.85 1516.82 L2249.54 1518.49 L2249.54 1514.23 L2257.8 1512.56 L2262.48 1512.56 L2262.48 1543.18 L2270.11 1543.18 L2270.11 1547.12 L2250.21 1547.12 L2250.21 1543.18 Z" fill="#000000" fill-rule="evenodd" fill-opacity="1" /><path clip-path="url(#clip620)" d="M2289.56 1515.64 Q2285.95 1515.64 2284.12 1519.2 Q2282.31 1522.75 2282.31 1529.87 Q2282.31 1536.98 2284.12 1540.55 Q2285.95 1544.09 2289.56 1544.09 Q2293.19 1544.09 2295 1540.55 Q2296.83 1536.98 2296.83 1529.87 Q2296.83 1522.75 2295 1519.2 Q2293.19 1515.64 2289.56 1515.64 M2289.56 1511.93 Q2295.37 1511.93 2298.42 1516.54 Q2301.5 1521.12 2301.5 1529.87 Q2301.5 1538.6 2298.42 1543.21 Q2295.37 1547.79 2289.56 1547.79 Q2283.75 1547.79 2280.67 1543.21 Q2277.61 1538.6 2277.61 1529.87 Q2277.61 1521.12 2280.67 1516.54 Q2283.75 1511.93 2289.56 1511.93 Z" fill="#000000" fill-rule="evenodd" fill-opacity="1" /><path clip-path="url(#clip620)" d="M2319.72 1515.64 Q2316.11 1515.64 2314.28 1519.2 Q2312.48 1522.75 2312.48 1529.87 Q2312.48 1536.98 2314.28 1540.55 Q2316.11 1544.09 2319.72 1544.09 Q2323.35 1544.09 2325.16 1540.55 Q2326.99 1536.98 2326.99 1529.87 Q2326.99 1522.75 2325.16 1519.2 Q2323.35 1515.64 2319.72 1515.64 M2319.72 1511.93 Q2325.53 1511.93 2328.59 1516.54 Q2331.67 1521.12 2331.67 1529.87 Q2331.67 1538.6 2328.59 1543.21 Q2325.53 1547.79 2319.72 1547.79 Q2313.91 1547.79 2310.83 1543.21 Q2307.78 1538.6 2307.78 1529.87 Q2307.78 1521.12 2310.83 1516.54 Q2313.91 1511.93 2319.72 1511.93 Z" fill="#000000" fill-rule="evenodd" fill-opacity="1" /><polyline clip-path="url(#clip622)" style="stroke:#000000; stroke-linecap:butt; stroke-linejoin:round; stroke-width:2; stroke-opacity:0.1; fill:none" points="
  156.598,1486.45 2352.76,1486.45 
  "/>
<polyline clip-path="url(#clip622)" style="stroke:#000000; stroke-linecap:butt; stroke-linejoin:round; stroke-width:2; stroke-opacity:0.1; fill:none" points="
  156.598,1198.61 2352.76,1198.61 
  "/>
<polyline clip-path="url(#clip622)" style="stroke:#000000; stroke-linecap:butt; stroke-linejoin:round; stroke-width:2; stroke-opacity:0.1; fill:none" points="
  156.598,910.766 2352.76,910.766 
  "/>
<polyline clip-path="url(#clip622)" style="stroke:#000000; stroke-linecap:butt; stroke-linejoin:round; stroke-width:2; stroke-opacity:0.1; fill:none" points="
  156.598,622.926 2352.76,622.926 
  "/>
<polyline clip-path="url(#clip622)" style="stroke:#000000; stroke-linecap:butt; stroke-linejoin:round; stroke-width:2; stroke-opacity:0.1; fill:none" points="
  156.598,335.085 2352.76,335.085 
  "/>
<polyline clip-path="url(#clip622)" style="stroke:#000000; stroke-linecap:butt; stroke-linejoin:round; stroke-width:2; stroke-opacity:0.1; fill:none" points="
  156.598,47.2441 2352.76,47.2441 
  "/>
<polyline clip-path="url(#clip620)" style="stroke:#000000; stroke-linecap:butt; stroke-linejoin:round; stroke-width:4; stroke-opacity:1; fill:none" points="
  156.598,1486.45 156.598,47.2441 
  "/>
<polyline clip-path="url(#clip620)" style="stroke:#000000; stroke-linecap:butt; stroke-linejoin:round; stroke-width:4; stroke-opacity:1; fill:none" points="
  156.598,1486.45 182.952,1486.45 
  "/>
<polyline clip-path="url(#clip620)" style="stroke:#000000; stroke-linecap:butt; stroke-linejoin:round; stroke-width:4; stroke-opacity:1; fill:none" points="
  156.598,1198.61 182.952,1198.61 
  "/>
<polyline clip-path="url(#clip620)" style="stroke:#000000; stroke-linecap:butt; stroke-linejoin:round; stroke-width:4; stroke-opacity:1; fill:none" points="
  156.598,910.766 182.952,910.766 
  "/>
<polyline clip-path="url(#clip620)" style="stroke:#000000; stroke-linecap:butt; stroke-linejoin:round; stroke-width:4; stroke-opacity:1; fill:none" points="
  156.598,622.926 182.952,622.926 
  "/>
<polyline clip-path="url(#clip620)" style="stroke:#000000; stroke-linecap:butt; stroke-linejoin:round; stroke-width:4; stroke-opacity:1; fill:none" points="
  156.598,335.085 182.952,335.085 
  "/>
<polyline clip-path="url(#clip620)" style="stroke:#000000; stroke-linecap:butt; stroke-linejoin:round; stroke-width:4; stroke-opacity:1; fill:none" points="
  156.598,47.2441 182.952,47.2441 
  "/>
<path clip-path="url(#clip620)" d="M63.4226 1472.25 Q59.8115 1472.25 57.9828 1475.81 Q56.1773 1479.35 56.1773 1486.48 Q56.1773 1493.59 57.9828 1497.15 Q59.8115 1500.7 63.4226 1500.7 Q67.0569 1500.7 68.8624 1497.15 Q70.6911 1493.59 70.6911 1486.48 Q70.6911 1479.35 68.8624 1475.81 Q67.0569 1472.25 63.4226 1472.25 M63.4226 1468.54 Q69.2328 1468.54 72.2883 1473.15 Q75.367 1477.73 75.367 1486.48 Q75.367 1495.21 72.2883 1499.82 Q69.2328 1504.4 63.4226 1504.4 Q57.6125 1504.4 54.5338 1499.82 Q51.4782 1495.21 51.4782 1486.48 Q51.4782 1477.73 54.5338 1473.15 Q57.6125 1468.54 63.4226 1468.54 Z" fill="#000000" fill-rule="evenodd" fill-opacity="1" /><path clip-path="url(#clip620)" d="M83.5845 1497.85 L88.4688 1497.85 L88.4688 1503.73 L83.5845 1503.73 L83.5845 1497.85 Z" fill="#000000" fill-rule="evenodd" fill-opacity="1" /><path clip-path="url(#clip620)" d="M108.654 1472.25 Q105.043 1472.25 103.214 1475.81 Q101.409 1479.35 101.409 1486.48 Q101.409 1493.59 103.214 1497.15 Q105.043 1500.7 108.654 1500.7 Q112.288 1500.7 114.094 1497.15 Q115.922 1493.59 115.922 1486.48 Q115.922 1479.35 114.094 1475.81 Q112.288 1472.25 108.654 1472.25 M108.654 1468.54 Q114.464 1468.54 117.52 1473.15 Q120.598 1477.73 120.598 1486.48 Q120.598 1495.21 117.52 1499.82 Q114.464 1504.4 108.654 1504.4 Q102.844 1504.4 99.765 1499.82 Q96.7095 1495.21 96.7095 1486.48 Q96.7095 1477.73 99.765 1473.15 Q102.844 1468.54 108.654 1468.54 Z" fill="#000000" fill-rule="evenodd" fill-opacity="1" /><path clip-path="url(#clip620)" d="M65.0198 1184.41 Q61.4087 1184.41 59.58 1187.97 Q57.7745 1191.51 57.7745 1198.64 Q57.7745 1205.75 59.58 1209.31 Q61.4087 1212.85 65.0198 1212.85 Q68.6541 1212.85 70.4596 1209.31 Q72.2883 1205.75 72.2883 1198.64 Q72.2883 1191.51 70.4596 1187.97 Q68.6541 1184.41 65.0198 1184.41 M65.0198 1180.7 Q70.83 1180.7 73.8855 1185.31 Q76.9642 1189.89 76.9642 1198.64 Q76.9642 1207.37 73.8855 1211.98 Q70.83 1216.56 65.0198 1216.56 Q59.2097 1216.56 56.131 1211.98 Q53.0754 1207.37 53.0754 1198.64 Q53.0754 1189.89 56.131 1185.31 Q59.2097 1180.7 65.0198 1180.7 Z" fill="#000000" fill-rule="evenodd" fill-opacity="1" /><path clip-path="url(#clip620)" d="M85.1818 1210.01 L90.066 1210.01 L90.066 1215.89 L85.1818 1215.89 L85.1818 1210.01 Z" fill="#000000" fill-rule="evenodd" fill-opacity="1" /><path clip-path="url(#clip620)" d="M104.279 1211.95 L120.598 1211.95 L120.598 1215.89 L98.6539 1215.89 L98.6539 1211.95 Q101.316 1209.2 105.899 1204.57 Q110.506 1199.91 111.686 1198.57 Q113.932 1196.05 114.811 1194.31 Q115.714 1192.55 115.714 1190.86 Q115.714 1188.11 113.77 1186.37 Q111.848 1184.64 108.746 1184.64 Q106.547 1184.64 104.094 1185.4 Q101.663 1186.17 98.8854 1187.72 L98.8854 1182.99 Q101.709 1181.86 104.163 1181.28 Q106.617 1180.7 108.654 1180.7 Q114.024 1180.7 117.219 1183.39 Q120.413 1186.07 120.413 1190.56 Q120.413 1192.69 119.603 1194.61 Q118.816 1196.51 116.709 1199.1 Q116.131 1199.78 113.029 1202.99 Q109.927 1206.19 104.279 1211.95 Z" fill="#000000" fill-rule="evenodd" fill-opacity="1" /><path clip-path="url(#clip620)" d="M62.9365 896.565 Q59.3254 896.565 57.4967 900.13 Q55.6912 903.671 55.6912 910.801 Q55.6912 917.908 57.4967 921.472 Q59.3254 925.014 62.9365 925.014 Q66.5707 925.014 68.3763 921.472 Q70.205 917.908 70.205 910.801 Q70.205 903.671 68.3763 900.13 Q66.5707 896.565 62.9365 896.565 M62.9365 892.861 Q68.7467 892.861 71.8022 897.468 Q74.8809 902.051 74.8809 910.801 Q74.8809 919.528 71.8022 924.134 Q68.7467 928.718 62.9365 928.718 Q57.1264 928.718 54.0477 924.134 Q50.9921 919.528 50.9921 910.801 Q50.9921 902.051 54.0477 897.468 Q57.1264 892.861 62.9365 892.861 Z" fill="#000000" fill-rule="evenodd" fill-opacity="1" /><path clip-path="url(#clip620)" d="M83.0984 922.167 L87.9827 922.167 L87.9827 928.046 L83.0984 928.046 L83.0984 922.167 Z" fill="#000000" fill-rule="evenodd" fill-opacity="1" /><path clip-path="url(#clip620)" d="M111.015 897.56 L99.2095 916.009 L111.015 916.009 L111.015 897.56 M109.788 893.486 L115.668 893.486 L115.668 916.009 L120.598 916.009 L120.598 919.898 L115.668 919.898 L115.668 928.046 L111.015 928.046 L111.015 919.898 L95.4132 919.898 L95.4132 915.384 L109.788 893.486 Z" fill="#000000" fill-rule="evenodd" fill-opacity="1" /><path clip-path="url(#clip620)" d="M63.2606 608.724 Q59.6495 608.724 57.8208 612.289 Q56.0152 615.831 56.0152 622.96 Q56.0152 630.067 57.8208 633.632 Q59.6495 637.173 63.2606 637.173 Q66.8948 637.173 68.7004 633.632 Q70.5291 630.067 70.5291 622.96 Q70.5291 615.831 68.7004 612.289 Q66.8948 608.724 63.2606 608.724 M63.2606 605.021 Q69.0707 605.021 72.1263 609.627 Q75.205 614.21 75.205 622.96 Q75.205 631.687 72.1263 636.294 Q69.0707 640.877 63.2606 640.877 Q57.4504 640.877 54.3717 636.294 Q51.3162 631.687 51.3162 622.96 Q51.3162 614.21 54.3717 609.627 Q57.4504 605.021 63.2606 605.021 Z" fill="#000000" fill-rule="evenodd" fill-opacity="1" /><path clip-path="url(#clip620)" d="M83.4225 634.326 L88.3067 634.326 L88.3067 640.206 L83.4225 640.206 L83.4225 634.326 Z" fill="#000000" fill-rule="evenodd" fill-opacity="1" /><path clip-path="url(#clip620)" d="M109.071 621.062 Q105.922 621.062 104.071 623.215 Q102.242 625.368 102.242 629.118 Q102.242 632.845 104.071 635.02 Q105.922 637.173 109.071 637.173 Q112.219 637.173 114.047 635.02 Q115.899 632.845 115.899 629.118 Q115.899 625.368 114.047 623.215 Q112.219 621.062 109.071 621.062 M118.353 606.409 L118.353 610.669 Q116.594 609.835 114.788 609.396 Q113.006 608.956 111.246 608.956 Q106.617 608.956 104.163 612.081 Q101.733 615.206 101.385 621.525 Q102.751 619.511 104.811 618.446 Q106.871 617.359 109.348 617.359 Q114.557 617.359 117.566 620.53 Q120.598 623.678 120.598 629.118 Q120.598 634.442 117.45 637.659 Q114.302 640.877 109.071 640.877 Q103.075 640.877 99.9039 636.294 Q96.7326 631.687 96.7326 622.96 Q96.7326 614.766 100.621 609.905 Q104.51 605.021 111.061 605.021 Q112.82 605.021 114.603 605.368 Q116.408 605.715 118.353 606.409 Z" fill="#000000" fill-rule="evenodd" fill-opacity="1" /><path clip-path="url(#clip620)" d="M63.5152 320.884 Q59.9041 320.884 58.0754 324.448 Q56.2699 327.99 56.2699 335.12 Q56.2699 342.226 58.0754 345.791 Q59.9041 349.332 63.5152 349.332 Q67.1494 349.332 68.955 345.791 Q70.7837 342.226 70.7837 335.12 Q70.7837 327.99 68.955 324.448 Q67.1494 320.884 63.5152 320.884 M63.5152 317.18 Q69.3254 317.18 72.3809 321.786 Q75.4596 326.37 75.4596 335.12 Q75.4596 343.846 72.3809 348.453 Q69.3254 353.036 63.5152 353.036 Q57.7051 353.036 54.6264 348.453 Q51.5708 343.846 51.5708 335.12 Q51.5708 326.37 54.6264 321.786 Q57.7051 317.18 63.5152 317.18 Z" fill="#000000" fill-rule="evenodd" fill-opacity="1" /><path clip-path="url(#clip620)" d="M83.6771 346.485 L88.5614 346.485 L88.5614 352.365 L83.6771 352.365 L83.6771 346.485 Z" fill="#000000" fill-rule="evenodd" fill-opacity="1" /><path clip-path="url(#clip620)" d="M108.746 335.953 Q105.413 335.953 103.492 337.735 Q101.594 339.518 101.594 342.643 Q101.594 345.768 103.492 347.55 Q105.413 349.332 108.746 349.332 Q112.08 349.332 114.001 347.55 Q115.922 345.745 115.922 342.643 Q115.922 339.518 114.001 337.735 Q112.103 335.953 108.746 335.953 M104.071 333.962 Q101.061 333.221 99.3715 331.161 Q97.7048 329.101 97.7048 326.138 Q97.7048 321.995 100.645 319.587 Q103.608 317.18 108.746 317.18 Q113.908 317.18 116.848 319.587 Q119.788 321.995 119.788 326.138 Q119.788 329.101 118.098 331.161 Q116.432 333.221 113.445 333.962 Q116.825 334.749 118.7 337.041 Q120.598 339.333 120.598 342.643 Q120.598 347.666 117.52 350.351 Q114.464 353.036 108.746 353.036 Q103.029 353.036 99.9502 350.351 Q96.8947 347.666 96.8947 342.643 Q96.8947 339.333 98.7928 337.041 Q100.691 334.749 104.071 333.962 M102.358 326.578 Q102.358 329.263 104.024 330.768 Q105.714 332.272 108.746 332.272 Q111.756 332.272 113.445 330.768 Q115.158 329.263 115.158 326.578 Q115.158 323.893 113.445 322.388 Q111.756 320.884 108.746 320.884 Q105.714 320.884 104.024 322.388 Q102.358 323.893 102.358 326.578 Z" fill="#000000" fill-rule="evenodd" fill-opacity="1" /><path clip-path="url(#clip620)" d="M54.2328 60.5889 L61.8717 60.5889 L61.8717 34.2233 L53.5616 35.89 L53.5616 31.6308 L61.8254 29.9641 L66.5013 29.9641 L66.5013 60.5889 L74.1402 60.5889 L74.1402 64.5241 L54.2328 64.5241 L54.2328 60.5889 Z" fill="#000000" fill-rule="evenodd" fill-opacity="1" /><path clip-path="url(#clip620)" d="M83.5845 58.6445 L88.4688 58.6445 L88.4688 64.5241 L83.5845 64.5241 L83.5845 58.6445 Z" fill="#000000" fill-rule="evenodd" fill-opacity="1" /><path clip-path="url(#clip620)" d="M108.654 33.0428 Q105.043 33.0428 103.214 36.6076 Q101.409 40.1492 101.409 47.2788 Q101.409 54.3853 103.214 57.9501 Q105.043 61.4917 108.654 61.4917 Q112.288 61.4917 114.094 57.9501 Q115.922 54.3853 115.922 47.2788 Q115.922 40.1492 114.094 36.6076 Q112.288 33.0428 108.654 33.0428 M108.654 29.3391 Q114.464 29.3391 117.52 33.9456 Q120.598 38.5289 120.598 47.2788 Q120.598 56.0056 117.52 60.6121 Q114.464 65.1954 108.654 65.1954 Q102.844 65.1954 99.765 60.6121 Q96.7095 56.0056 96.7095 47.2788 Q96.7095 38.5289 99.765 33.9456 Q102.844 29.3391 108.654 29.3391 Z" fill="#000000" fill-rule="evenodd" fill-opacity="1" /><polyline clip-path="url(#clip622)" style="stroke:#0000ff; stroke-linecap:butt; stroke-linejoin:round; stroke-width:4; stroke-opacity:1; fill:none" points="
  218.754,1126.65 220.825,1149.06 222.897,1170.15 224.969,1189.94 227.041,1208.46 229.113,1225.73 231.185,1241.81 233.257,1256.73 235.328,1270.55 237.4,1283.32 
  239.472,1295.09 241.544,1305.91 243.616,1315.84 245.688,1324.93 247.759,1333.23 249.831,1340.79 251.903,1347.66 253.975,1353.87 256.047,1359.48 258.119,1364.52 
  260.191,1369.03 262.262,1373.04 264.334,1376.6 266.406,1379.73 268.478,1382.46 270.55,1384.82 272.622,1386.84 274.694,1388.54 276.765,1389.94 278.837,1391.07 
  280.909,1391.93 282.981,1392.56 285.053,1392.97 287.125,1393.17 289.196,1393.19 291.268,1393.02 293.34,1392.69 295.412,1392.21 297.484,1391.59 299.556,1390.83 
  301.628,1389.96 303.699,1388.97 305.771,1387.87 307.843,1386.68 309.915,1385.39 311.987,1384.02 314.059,1382.58 316.13,1381.06 318.202,1379.47 320.274,1377.82 
  322.346,1376.11 324.418,1374.34 326.49,1372.53 328.562,1370.66 330.633,1368.76 332.705,1366.81 334.777,1364.82 336.849,1362.79 338.921,1360.74 340.993,1358.64 
  343.064,1356.52 345.136,1354.37 347.208,1352.2 349.28,1349.99 351.352,1347.77 353.424,1345.52 355.496,1343.24 357.567,1340.95 359.639,1338.63 361.711,1336.29 
  363.783,1333.93 365.855,1331.55 367.927,1329.16 369.998,1326.74 372.07,1324.3 374.142,1321.85 376.214,1319.37 378.286,1316.88 380.358,1314.36 382.43,1311.82 
  384.501,1309.26 386.573,1306.69 388.645,1304.08 390.717,1301.46 392.789,1298.81 394.861,1296.13 396.932,1293.43 399.004,1290.7 401.076,1287.95 403.148,1285.16 
  405.22,1282.34 407.292,1279.49 409.364,1276.6 411.435,1273.68 413.507,1270.72 415.579,1267.72 417.651,1264.68 419.723,1261.59 421.795,1258.45 423.866,1255.26 
  425.938,1252.02 428.01,1248.72 430.082,1245.36 432.154,1241.94 434.226,1238.45 436.298,1234.89 438.369,1231.26 440.441,1227.54 442.513,1223.74 444.585,1219.85 
  446.657,1215.86 448.729,1211.76 450.8,1207.56 452.872,1203.24 454.944,1198.79 457.016,1194.22 459.088,1189.5 461.16,1184.62 463.232,1179.59 465.303,1174.37 
  467.375,1168.98 469.447,1163.38 471.519,1157.56 473.591,1151.51 475.663,1145.22 477.734,1138.65 479.806,1131.8 481.878,1124.64 483.95,1117.14 486.022,1109.27 
  488.094,1101.02 490.166,1092.34 492.237,1083.21 494.309,1073.58 496.381,1063.43 498.453,1052.69 500.525,1041.34 502.597,1029.33 504.669,1016.6 506.74,1003.11 
  508.812,988.806 510.884,973.641 512.956,957.57 515.028,940.554 517.1,922.561 519.171,903.574 521.243,883.589 523.315,862.623 525.387,840.718 527.459,817.94 
  529.531,794.386 531.603,770.182 533.674,745.48 535.746,720.455 537.818,695.3 539.89,670.215 541.962,645.402 544.034,621.056 546.105,597.358 548.177,574.469 
  550.249,552.528 552.321,531.652 554.393,511.932 556.465,493.436 558.537,476.214 560.608,460.298 562.68,445.702 564.752,432.432 566.824,420.482 568.896,409.838 
  570.968,400.484 573.039,392.397 575.111,385.554 577.183,379.931 579.255,375.502 581.327,372.245 583.399,370.138 585.471,369.161 587.542,369.295 589.614,370.524 
  591.686,372.836 593.758,376.219 595.83,380.667 597.902,386.171 599.973,392.729 602.045,400.339 604.117,409 606.189,418.714 608.261,429.482 610.333,441.306 
  612.405,454.188 614.476,468.128 616.548,483.126 618.62,499.177 620.692,516.273 622.764,534.404 624.836,553.55 626.907,573.688 628.979,594.785 631.051,616.799 
  633.123,639.68 635.195,663.366 637.267,687.786 639.339,712.858 641.41,738.488 643.482,764.573 645.554,791.003 647.626,817.659 649.698,844.417 651.77,871.154 
  653.841,897.742 655.913,924.059 657.985,949.987 660.057,975.415 662.129,1000.24 664.201,1024.38 666.273,1047.75 668.344,1070.29 670.416,1091.94 672.488,1112.66 
  674.56,1132.43 676.632,1151.23 678.704,1169.05 680.775,1185.9 682.847,1201.78 684.919,1216.71 686.991,1230.71 689.063,1243.81 691.135,1256.03 693.207,1267.42 
  695.278,1278 697.35,1287.8 699.422,1296.87 701.494,1305.24 703.566,1312.94 705.638,1320.01 707.709,1326.49 709.781,1332.41 711.853,1337.79 713.925,1342.68 
  715.997,1347.09 718.069,1351.07 720.141,1354.63 722.212,1357.8 724.284,1360.61 726.356,1363.08 728.428,1365.22 730.5,1367.07 732.572,1368.64 734.644,1369.95 
  736.715,1371.01 738.787,1371.85 740.859,1372.47 742.931,1372.89 745.003,1373.13 747.075,1373.19 749.146,1373.09 751.218,1372.83 753.29,1372.44 755.362,1371.91 
  757.434,1371.26 759.506,1370.49 761.578,1369.61 763.649,1368.64 765.721,1367.57 767.793,1366.41 769.865,1365.16 771.937,1363.84 774.009,1362.45 776.08,1360.99 
  778.152,1359.46 780.224,1357.87 782.296,1356.23 784.368,1354.54 786.44,1352.79 788.512,1351 790.583,1349.16 792.655,1347.28 794.727,1345.36 796.799,1343.4 
  798.871,1341.4 800.943,1339.37 803.014,1337.31 805.086,1335.22 807.158,1333.09 809.23,1330.93 811.302,1328.75 813.374,1326.53 815.446,1324.29 817.517,1322.02 
  819.589,1319.73 821.661,1317.41 823.733,1315.06 825.805,1312.68 827.877,1310.28 829.948,1307.85 832.02,1305.4 834.092,1302.92 836.164,1300.41 838.236,1297.87 
  840.308,1295.3 842.38,1292.71 844.451,1290.08 846.523,1287.42 848.595,1284.73 850.667,1282 852.739,1279.24 854.811,1276.44 856.882,1273.6 858.954,1270.72 
  861.026,1267.8 863.098,1264.83 865.17,1261.82 867.242,1258.76 869.314,1255.65 871.385,1252.48 873.457,1249.26 875.529,1245.98 877.601,1242.63 879.673,1239.22 
  881.745,1235.73 883.816,1232.17 885.888,1228.53 887.96,1224.81 890.032,1220.99 892.104,1217.08 894.176,1213.07 896.248,1208.95 898.319,1204.72 900.391,1200.36 
  902.463,1195.88 904.535,1191.25 906.607,1186.48 908.679,1181.55 910.75,1176.45 912.822,1171.16 914.894,1165.69 916.966,1160 919.038,1154.09 921.11,1147.93 
  923.182,1141.52 925.253,1134.83 927.325,1127.84 929.397,1120.53 931.469,1112.86 933.541,1104.82 935.613,1096.37 937.685,1087.48 939.756,1078.12 941.828,1068.24 
  943.9,1057.82 945.972,1046.79 948.044,1035.12 950.116,1022.77 952.187,1009.68 954.259,995.794 956.331,981.076 958.403,965.474 960.475,948.945 962.547,931.455 
  964.619,912.978 966.69,893.503 968.762,873.036 970.834,851.607 972.906,829.268 974.978,806.103 977.05,782.221 979.121,757.763 981.193,732.892 983.265,707.792 
  985.337,682.662 987.409,657.704 989.481,633.115 991.553,609.086 993.624,585.786 995.696,563.368 997.768,541.958 999.84,521.66 1001.91,502.554 1003.98,484.699 
  1006.06,468.135 1008.13,452.884 1010.2,438.958 1012.27,426.354 1014.34,415.064 1016.41,405.072 1018.49,396.358 1020.56,388.899 1022.63,382.671 1024.7,377.651 
  1026.77,373.813 1028.85,371.135 1030.92,369.597 1032.99,369.178 1035.06,369.862 1037.13,371.635 1039.2,374.484 1041.28,378.401 1043.35,383.377 1045.42,389.409 
  1047.49,396.492 1049.56,404.627 1051.64,413.814 1053.71,424.053 1055.78,435.348 1057.85,447.699 1059.92,461.108 1062,475.575 1064.07,491.098 1066.14,507.67 
  1068.21,525.282 1070.28,543.92 1072.35,563.562 1074.43,584.179 1076.5,605.736 1078.57,628.185 1080.64,651.472 1082.71,675.53 1084.79,700.281 1086.86,725.638 
  1088.93,751.503 1091,777.768 1093.07,804.32 1095.14,831.036 1097.22,857.794 1099.29,884.465 1101.36,910.927 1103.43,937.059 1105.5,962.745 1107.58,987.881 
  1109.65,1012.37 1111.72,1036.13 1113.79,1059.09 1115.86,1081.18 1117.94,1102.37 1120.01,1122.62 1122.08,1141.9 1124.15,1160.21 1126.22,1177.55 1128.29,1193.91 
  1130.37,1209.31 1132.44,1223.77 1134.51,1237.32 1136.58,1249.98 1138.65,1261.78 1140.73,1272.76 1142.8,1282.94 1144.87,1292.38 1146.94,1301.09 1149.01,1309.13 
  1151.08,1316.51 1153.16,1323.28 1155.23,1329.48 1157.3,1335.12 1159.37,1340.25 1161.44,1344.9 1163.52,1349.1 1165.59,1352.86 1167.66,1356.23 1169.73,1359.21 
  1171.8,1361.85 1173.88,1364.16 1175.95,1366.15 1178.02,1367.86 1180.09,1369.3 1182.16,1370.48 1184.23,1371.43 1186.31,1372.16 1188.38,1372.68 1190.45,1373.01 
  1192.52,1373.15 1194.59,1373.13 1196.67,1372.95 1198.74,1372.63 1200.81,1372.17 1202.88,1371.58 1204.95,1370.87 1207.02,1370.05 1209.1,1369.12 1211.17,1368.09 
  1213.24,1366.98 1215.31,1365.78 1217.38,1364.49 1219.46,1363.14 1221.53,1361.71 1223.6,1360.21 1225.67,1358.66 1227.74,1357.04 1229.81,1355.37 1231.89,1353.65 
  1233.96,1351.88 1236.03,1350.07 1238.1,1348.21 1240.17,1346.31 1242.25,1344.37 1244.32,1342.39 1246.39,1340.38 1248.46,1338.33 1250.53,1336.25 1252.61,1334.14 
  1254.68,1332 1256.75,1329.83 1258.82,1327.63 1260.89,1325.4 1262.96,1323.15 1265.04,1320.87 1267.11,1318.56 1269.18,1316.22 1271.25,1313.86 1273.32,1311.48 
  1275.4,1309.06 1277.47,1306.62 1279.54,1304.15 1281.61,1301.66 1283.68,1299.13 1285.75,1296.58 1287.83,1294 1289.9,1291.38 1291.97,1288.74 1294.04,1286.06 
  1296.11,1283.36 1298.19,1280.61 1300.26,1277.83 1302.33,1275.01 1304.4,1272.15 1306.47,1269.25 1308.55,1266.31 1310.62,1263.32 1312.69,1260.29 1314.76,1257.2 
  1316.83,1254.06 1318.9,1250.87 1320.98,1247.62 1323.05,1244.3 1325.12,1240.92 1327.19,1237.47 1329.26,1233.95 1331.34,1230.35 1333.41,1226.67 1335.48,1222.9 
  1337.55,1219.04 1339.62,1215.08 1341.69,1211.01 1343.77,1206.84 1345.84,1202.54 1347.91,1198.12 1349.98,1193.57 1352.05,1188.87 1354.13,1184.02 1356.2,1179 
  1358.27,1173.81 1360.34,1168.43 1362.41,1162.85 1364.48,1157.05 1366.56,1151.02 1368.63,1144.74 1370.7,1138.19 1372.77,1131.36 1374.84,1124.2 1376.92,1116.72 
  1378.99,1108.87 1381.06,1100.62 1383.13,1091.96 1385.2,1082.83 1387.28,1073.22 1389.35,1063.07 1391.42,1052.35 1393.49,1041.01 1395.56,1029 1397.63,1016.28 
  1399.71,1002.8 1401.78,988.499 1403.85,973.342 1405.92,957.279 1407.99,940.271 1410.07,922.287 1412.14,903.308 1414.21,883.332 1416.28,862.376 1418.35,840.481 
  1420.42,817.715 1422.5,794.173 1424.57,769.982 1426.64,745.295 1428.71,720.285 1430.78,695.145 1432.86,670.076 1434.93,645.279 1437,620.949 1439.07,597.266 
  1441.14,574.393 1443.22,552.467 1445.29,531.605 1447.36,511.898 1449.43,493.415 1451.5,476.205 1453.57,460.3 1455.65,445.715 1457.72,432.454 1459.79,420.513 
  1461.86,409.878 1463.93,400.531 1466.01,392.451 1468.08,385.615 1470.15,379.997 1472.22,375.574 1474.29,372.323 1476.36,370.221 1478.44,369.247 1480.51,369.385 
  1482.58,370.619 1484.65,372.934 1486.72,376.321 1488.8,380.772 1490.87,386.279 1492.94,392.84 1495.01,400.452 1497.08,409.116 1499.15,418.832 1501.23,429.602 
  1503.3,441.427 1505.37,454.311 1507.44,468.252 1509.51,483.25 1511.59,499.302 1513.66,516.399 1515.73,534.529 1517.8,553.675 1519.87,573.811 1521.95,594.906 
  1524.02,616.918 1526.09,639.796 1528.16,663.48 1530.23,687.896 1532.3,712.964 1534.38,738.589 1536.45,764.669 1538.52,791.093 1540.59,817.743 1542.66,844.496 
  1544.74,871.226 1546.81,897.808 1548.88,924.118 1550.95,950.04 1553.02,975.462 1555.09,1000.28 1557.17,1024.42 1559.24,1047.78 1561.31,1070.31 1563.38,1091.95 
  1565.45,1112.67 1567.53,1132.44 1569.6,1151.24 1571.67,1169.05 1573.74,1185.9 1575.81,1201.77 1577.89,1216.7 1579.96,1230.7 1582.03,1243.79 1584.1,1256.02 
  1586.17,1267.4 1588.24,1277.98 1590.32,1287.78 1592.39,1296.85 1594.46,1305.22 1596.53,1312.92 1598.6,1319.99 1600.68,1326.47 1602.75,1332.38 1604.82,1337.77 
  1606.89,1342.65 1608.96,1347.07 1611.03,1351.04 1613.11,1354.6 1615.18,1357.77 1617.25,1360.58 1619.32,1363.05 1621.39,1365.2 1623.47,1367.05 1625.54,1368.62 
  1627.61,1369.92 1629.68,1370.99 1631.75,1371.82 1633.83,1372.44 1635.9,1372.87 1637.97,1373.1 1640.04,1373.16 1642.11,1373.06 1644.18,1372.81 1646.26,1372.41 
  1648.33,1371.89 1650.4,1371.23 1652.47,1370.47 1654.54,1369.59 1656.62,1368.61 1658.69,1367.54 1660.76,1366.38 1662.83,1365.14 1664.9,1363.82 1666.97,1362.43 
  1669.05,1360.96 1671.12,1359.44 1673.19,1357.85 1675.26,1356.21 1677.33,1354.52 1679.41,1352.77 1681.48,1350.98 1683.55,1349.14 1685.62,1347.26 1687.69,1345.34 
  1689.76,1343.38 1691.84,1341.38 1693.91,1339.35 1695.98,1337.29 1698.05,1335.2 1700.12,1333.07 1702.2,1330.91 1704.27,1328.73 1706.34,1326.52 1708.41,1324.27 
  1710.48,1322.01 1712.56,1319.71 1714.63,1317.39 1716.7,1315.04 1718.77,1312.67 1720.84,1310.26 1722.91,1307.84 1724.99,1305.38 1727.06,1302.9 1729.13,1300.39 
  1731.2,1297.85 1733.27,1295.28 1735.35,1292.69 1737.42,1290.06 1739.49,1287.4 1741.56,1284.71 1743.63,1281.98 1745.7,1279.22 1747.78,1276.42 1749.85,1273.58 
  1751.92,1270.7 1753.99,1267.78 1756.06,1264.82 1758.14,1261.8 1760.21,1258.74 1762.28,1255.63 1764.35,1252.46 1766.42,1249.24 1768.5,1245.96 1770.57,1242.61 
  1772.64,1239.2 1774.71,1235.71 1776.78,1232.15 1778.85,1228.51 1780.93,1224.78 1783,1220.97 1785.07,1217.06 1787.14,1213.05 1789.21,1208.93 1791.29,1204.69 
  1793.36,1200.34 1795.43,1195.85 1797.5,1191.22 1799.57,1186.45 1801.64,1181.52 1803.72,1176.42 1805.79,1171.13 1807.86,1165.65 1809.93,1159.96 1812,1154.05 
  1814.08,1147.9 1816.15,1141.48 1818.22,1134.79 1820.29,1127.8 1822.36,1120.48 1824.43,1112.82 1826.51,1104.77 1828.58,1096.32 1830.65,1087.43 1832.72,1078.06 
  1834.79,1068.18 1836.87,1057.75 1838.94,1046.72 1841.01,1035.05 1843.08,1022.69 1845.15,1009.6 1847.23,995.71 1849.3,980.987 1851.37,965.379 1853.44,948.845 
  1855.51,931.35 1857.58,912.867 1859.66,893.386 1861.73,872.913 1863.8,851.478 1865.87,829.135 1867.94,805.965 1870.02,782.079 1872.09,757.618 1874.16,732.745 
  1876.23,707.645 1878.3,682.515 1880.37,657.558 1882.45,632.973 1884.52,608.947 1886.59,585.652 1888.66,563.239 1890.73,541.836 1892.81,521.545 1894.88,502.446 
  1896.95,484.598 1899.02,468.042 1901.09,452.799 1903.17,438.88 1905.24,426.284 1907.31,415.002 1909.38,405.017 1911.45,396.31 1913.52,388.859 1915.6,382.639 
  1917.67,377.625 1919.74,373.794 1921.81,371.123 1923.88,369.591 1925.96,369.179 1928.03,369.87 1930.1,371.649 1932.17,374.504 1934.24,378.427 1936.31,383.41 
  1938.39,389.447 1940.46,396.537 1942.53,404.678 1944.6,413.871 1946.67,424.116 1948.75,435.417 1950.82,447.774 1952.89,461.19 1954.96,475.663 1957.03,491.192 
  1959.11,507.77 1961.18,525.389 1963.25,544.032 1965.32,563.68 1967.39,584.303 1969.46,605.865 1971.54,628.32 1973.61,651.611 1975.68,675.673 1977.75,700.428 
  1979.82,725.788 1981.9,751.656 1983.97,777.923 1986.04,804.476 1988.11,831.193 1990.18,857.95 1992.25,884.621 1994.33,911.081 1996.4,937.211 1998.47,962.894 
  2000.54,988.026 2002.61,1012.51 2004.69,1036.27 2006.76,1059.22 2008.83,1081.31 2010.9,1102.49 2012.97,1122.74 2015.04,1142.01 2017.12,1160.32 2019.19,1177.65 
  2021.26,1194 2023.33,1209.4 2025.4,1223.85 2027.48,1237.4 2029.55,1250.05 2031.62,1261.85 2033.69,1272.82 2035.76,1283 2037.84,1292.43 2039.91,1301.14 
  2041.98,1309.17 2044.05,1316.55 2046.12,1323.32 2048.19,1329.51 2050.27,1335.15 2052.34,1340.28 2054.41,1344.93 2056.48,1349.12 2058.55,1352.88 2060.63,1356.24 
  2062.7,1359.23 2064.77,1361.86 2066.84,1364.17 2068.91,1366.16 2070.98,1367.87 2073.06,1369.3 2075.13,1370.49 2077.2,1371.43 2079.27,1372.16 2081.34,1372.68 
  2083.42,1373.01 2085.49,1373.15 2087.56,1373.13 2089.63,1372.95 2091.7,1372.63 2093.78,1372.16 2095.85,1371.57 2097.92,1370.86 2099.99,1370.04 2102.06,1369.11 
  2104.13,1368.09 2106.21,1366.97 2108.28,1365.77 2110.35,1364.49 2112.42,1363.13 2114.49,1361.7 2116.57,1360.2 2118.64,1358.65 2120.71,1357.03 2122.78,1355.36 
  2124.85,1353.64 2126.92,1351.87 2129,1350.06 2131.07,1348.2 2133.14,1346.3 2135.21,1344.36 2137.28,1342.38 2139.36,1340.37 2141.43,1338.32 2143.5,1336.24 
  2145.57,1334.13 2147.64,1331.99 2149.71,1329.82 2151.79,1327.62 2153.86,1325.39 2155.93,1323.14 2158,1320.85 2160.07,1318.55 2162.15,1316.21 2164.22,1313.85 
  2166.29,1311.46 2168.36,1309.05 2170.43,1306.61 2172.51,1304.14 2174.58,1301.64 2176.65,1299.12 2178.72,1296.56 2180.79,1293.98 2182.86,1291.37 2184.94,1288.73 
  2187.01,1286.05 2189.08,1283.34 2191.15,1280.59 2193.22,1277.81 2195.3,1275 2197.37,1272.14 2199.44,1269.24 2201.51,1266.29 2203.58,1263.31 2205.65,1260.27 
  2207.73,1257.18 2209.8,1254.05 2211.87,1250.85 2213.94,1247.6 2216.01,1244.28 2218.09,1240.9 2220.16,1237.45 2222.23,1233.93 2224.3,1230.33 2226.37,1226.65 
  2228.45,1222.88 2230.52,1219.01 2232.59,1215.05 2234.66,1210.99 2236.73,1206.81 2238.8,1202.52 2240.88,1198.1 2242.95,1193.54 2245.02,1188.84 2247.09,1183.99 
  2249.16,1178.97 2251.24,1173.78 2253.31,1168.4 2255.38,1162.82 2257.45,1157.02 2259.52,1150.99 2261.59,1144.71 2263.67,1138.15 2265.74,1131.31 2267.81,1124.16 
  2269.88,1116.67 2271.95,1108.82 2274.03,1100.57 2276.1,1091.91 2278.17,1082.78 2280.24,1073.16 2282.31,1063.01 2284.38,1052.28 2286.46,1040.94 2288.53,1028.93 
  2290.6,1016.2 
  "/>
<polyline clip-path="url(#clip622)" style="stroke:#ff0000; stroke-linecap:butt; stroke-linejoin:round; stroke-width:4; stroke-opacity:1; fill:none" points="
  218.754,1126.65 220.825,1141.81 222.897,1156.51 224.969,1170.74 227.041,1184.5 229.113,1197.77 231.185,1210.55 233.257,1222.85 235.328,1234.67 237.4,1246.01 
  239.472,1256.9 241.544,1267.33 243.616,1277.33 245.688,1286.89 247.759,1296.04 249.831,1304.78 251.903,1313.14 253.975,1321.12 256.047,1328.74 258.119,1336.01 
  260.191,1342.94 262.262,1349.56 264.334,1355.86 266.406,1361.86 268.478,1367.58 270.55,1373.02 272.622,1378.2 274.694,1383.13 276.765,1387.81 278.837,1392.27 
  280.909,1396.5 282.981,1400.52 285.053,1404.35 287.125,1407.97 289.196,1411.41 291.268,1414.68 293.34,1417.77 295.412,1420.71 297.484,1423.49 299.556,1426.12 
  301.628,1428.61 303.699,1430.97 305.771,1433.19 307.843,1435.3 309.915,1437.28 311.987,1439.16 314.059,1440.93 316.13,1442.59 318.202,1444.16 320.274,1445.64 
  322.346,1447.02 324.418,1448.32 326.49,1449.54 328.562,1450.68 330.633,1451.75 332.705,1452.75 334.777,1453.68 336.849,1454.54 338.921,1455.34 340.993,1456.09 
  343.064,1456.78 345.136,1457.41 347.208,1457.99 349.28,1458.52 351.352,1459.01 353.424,1459.45 355.496,1459.85 357.567,1460.2 359.639,1460.52 361.711,1460.8 
  363.783,1461.04 365.855,1461.25 367.927,1461.42 369.998,1461.57 372.07,1461.68 374.142,1461.76 376.214,1461.81 378.286,1461.83 380.358,1461.83 382.43,1461.81 
  384.501,1461.75 386.573,1461.68 388.645,1461.58 390.717,1461.46 392.789,1461.32 394.861,1461.15 396.932,1460.97 399.004,1460.76 401.076,1460.53 403.148,1460.29 
  405.22,1460.03 407.292,1459.74 409.364,1459.44 411.435,1459.12 413.507,1458.79 415.579,1458.43 417.651,1458.06 419.723,1457.67 421.795,1457.26 423.866,1456.83 
  425.938,1456.39 428.01,1455.92 430.082,1455.44 432.154,1454.94 434.226,1454.42 436.298,1453.88 438.369,1453.32 440.441,1452.74 442.513,1452.13 444.585,1451.51 
  446.657,1450.86 448.729,1450.18 450.8,1449.49 452.872,1448.76 454.944,1448.01 457.016,1447.22 459.088,1446.41 461.16,1445.56 463.232,1444.68 465.303,1443.76 
  467.375,1442.8 469.447,1441.8 471.519,1440.76 473.591,1439.66 475.663,1438.51 477.734,1437.31 479.806,1436.04 481.878,1434.71 483.95,1433.31 486.022,1431.82 
  488.094,1430.25 490.166,1428.59 492.237,1426.82 494.309,1424.93 496.381,1422.92 498.453,1420.77 500.525,1418.47 502.597,1415.99 504.669,1413.32 506.74,1410.44 
  508.812,1407.31 510.884,1403.92 512.956,1400.23 515.028,1396.2 517.1,1391.79 519.171,1386.96 521.243,1381.67 523.315,1375.85 525.387,1369.46 527.459,1362.43 
  529.531,1354.71 531.603,1346.25 533.674,1336.99 535.746,1326.91 537.818,1315.96 539.89,1304.14 541.962,1291.45 544.034,1277.91 546.105,1263.57 548.177,1248.49 
  550.249,1232.74 552.321,1216.42 554.393,1199.61 556.465,1182.43 558.537,1164.99 560.608,1147.39 562.68,1129.74 564.752,1112.15 566.824,1094.7 568.896,1077.49 
  570.968,1060.61 573.039,1044.12 575.111,1028.11 577.183,1012.62 579.255,997.719 581.327,983.456 583.399,969.877 585.471,957.022 587.542,944.928 589.614,933.627 
  591.686,923.151 593.758,913.527 595.83,904.779 597.902,896.931 599.973,890.005 602.045,884.019 604.117,878.994 606.189,874.944 608.261,871.886 610.333,869.832 
  612.405,868.795 614.476,868.784 616.548,869.803 618.62,871.856 620.692,874.942 622.764,879.053 624.836,884.179 626.907,890.301 628.979,897.394 631.051,905.426 
  633.123,914.359 635.195,924.143 637.267,934.725 639.339,946.041 641.41,958.023 643.482,970.597 645.554,983.683 647.626,997.2 649.698,1011.07 651.77,1025.2 
  653.841,1039.52 655.913,1053.94 657.985,1068.41 660.057,1082.84 662.129,1097.17 664.201,1111.36 666.273,1125.35 668.344,1139.1 670.416,1152.57 672.488,1165.73 
  674.56,1178.57 676.632,1191.06 678.704,1203.18 680.775,1214.93 682.847,1226.3 684.919,1237.29 686.991,1247.89 689.063,1258.11 691.135,1267.94 693.207,1277.4 
  695.278,1286.49 697.35,1295.22 699.422,1303.59 701.494,1311.61 703.566,1319.3 705.638,1326.67 707.709,1333.71 709.781,1340.45 711.853,1346.9 713.925,1353.05 
  715.997,1358.93 718.069,1364.54 720.141,1369.9 722.212,1375.01 724.284,1379.88 726.356,1384.52 728.428,1388.94 730.5,1393.15 732.572,1397.16 734.644,1400.97 
  736.715,1404.6 738.787,1408.05 740.859,1411.32 742.931,1414.44 745.003,1417.39 747.075,1420.2 749.146,1422.86 751.218,1425.38 753.29,1427.77 755.362,1430.04 
  757.434,1432.18 759.506,1434.21 761.578,1436.12 763.649,1437.93 765.721,1439.64 767.793,1441.26 769.865,1442.78 771.937,1444.21 774.009,1445.55 776.08,1446.82 
  778.152,1448 780.224,1449.12 782.296,1450.16 784.368,1451.13 786.44,1452.04 788.512,1452.89 790.583,1453.67 792.655,1454.4 794.727,1455.08 796.799,1455.7 
  798.871,1456.27 800.943,1456.8 803.014,1457.28 805.086,1457.71 807.158,1458.1 809.23,1458.46 811.302,1458.77 813.374,1459.04 815.446,1459.28 817.517,1459.49 
  819.589,1459.66 821.661,1459.8 823.733,1459.91 825.805,1459.99 827.877,1460.04 829.948,1460.07 832.02,1460.06 834.092,1460.04 836.164,1459.98 838.236,1459.91 
  840.308,1459.8 842.38,1459.68 844.451,1459.53 846.523,1459.37 848.595,1459.18 850.667,1458.97 852.739,1458.73 854.811,1458.48 856.882,1458.21 858.954,1457.92 
  861.026,1457.61 863.098,1457.28 865.17,1456.94 867.242,1456.57 869.314,1456.18 871.385,1455.78 873.457,1455.35 875.529,1454.91 877.601,1454.44 879.673,1453.96 
  881.745,1453.45 883.816,1452.92 885.888,1452.38 887.96,1451.8 890.032,1451.21 892.104,1450.59 894.176,1449.95 896.248,1449.29 898.319,1448.59 900.391,1447.87 
  902.463,1447.12 904.535,1446.34 906.607,1445.52 908.679,1444.67 910.75,1443.79 912.822,1442.86 914.894,1441.9 916.966,1440.89 919.038,1439.83 921.11,1438.72 
  923.182,1437.56 925.253,1436.33 927.325,1435.05 929.397,1433.69 931.469,1432.25 933.541,1430.74 935.613,1429.13 937.685,1427.42 939.756,1425.6 941.828,1423.67 
  943.9,1421.6 945.972,1419.38 948.044,1416.99 950.116,1414.43 952.187,1411.66 954.259,1408.66 956.331,1405.41 958.403,1401.88 960.475,1398.03 962.547,1393.82 
  964.619,1389.22 966.69,1384.16 968.762,1378.62 970.834,1372.52 972.906,1365.82 974.978,1358.46 977.05,1350.38 979.121,1341.53 981.193,1331.87 983.265,1321.36 
  985.337,1309.98 987.409,1297.73 989.481,1284.62 991.553,1270.69 993.624,1255.98 995.696,1240.56 997.768,1224.52 999.84,1207.95 1001.91,1190.95 1003.98,1173.64 
  1006.06,1156.11 1008.13,1138.48 1010.2,1120.86 1012.27,1103.33 1014.34,1086.01 1016.41,1068.96 1018.49,1052.27 1020.56,1036.02 1022.63,1020.27 1024.7,1005.08 
  1026.77,990.496 1028.85,976.577 1030.92,963.361 1032.99,950.888 1035.06,939.193 1037.13,928.307 1039.2,918.258 1041.28,909.074 1043.35,900.778 1045.42,893.393 
  1047.49,886.939 1049.56,881.434 1051.64,876.898 1053.71,873.346 1055.78,870.791 1057.85,869.247 1059.92,868.724 1062,869.23 1064.07,870.767 1066.14,873.339 
  1068.21,876.939 1070.28,881.56 1072.35,887.187 1074.43,893.798 1076.5,901.365 1078.57,909.852 1080.64,919.216 1082.71,929.405 1084.79,940.36 1086.86,952.016 
  1088.93,964.301 1091,977.138 1093.07,990.448 1095.14,1004.15 1097.22,1018.15 1099.29,1032.39 1101.36,1046.77 1103.43,1061.22 1105.5,1075.67 1107.58,1090.05 
  1109.65,1104.32 1111.72,1118.41 1113.79,1132.28 1115.86,1145.89 1117.94,1159.21 1120.01,1172.22 1122.08,1184.88 1124.15,1197.18 1126.22,1209.12 1128.29,1220.68 
  1130.37,1231.86 1132.44,1242.65 1134.51,1253.05 1136.58,1263.08 1138.65,1272.72 1140.73,1282 1142.8,1290.9 1144.87,1299.45 1146.94,1307.65 1149.01,1315.5 
  1151.08,1323.03 1153.16,1330.23 1155.23,1337.12 1157.3,1343.71 1159.37,1350.01 1161.44,1356.03 1163.52,1361.77 1165.59,1367.25 1167.66,1372.48 1169.73,1377.47 
  1171.8,1382.22 1173.88,1386.75 1175.95,1391.07 1178.02,1395.18 1180.09,1399.09 1182.16,1402.8 1184.23,1406.34 1186.31,1409.7 1188.38,1412.9 1190.45,1415.93 
  1192.52,1418.81 1194.59,1421.54 1196.67,1424.13 1198.74,1426.59 1200.81,1428.92 1202.88,1431.12 1204.95,1433.21 1207.02,1435.18 1209.1,1437.04 1211.17,1438.8 
  1213.24,1440.46 1215.31,1442.02 1217.38,1443.5 1219.46,1444.89 1221.53,1446.19 1223.6,1447.42 1225.67,1448.57 1227.74,1449.64 1229.81,1450.65 1231.89,1451.59 
  1233.96,1452.47 1236.03,1453.28 1238.1,1454.04 1240.17,1454.74 1242.25,1455.39 1244.32,1455.99 1246.39,1456.54 1248.46,1457.04 1250.53,1457.5 1252.61,1457.91 
  1254.68,1458.28 1256.75,1458.61 1258.82,1458.91 1260.89,1459.17 1262.96,1459.39 1265.04,1459.58 1267.11,1459.73 1269.18,1459.86 1271.25,1459.95 1273.32,1460.02 
  1275.4,1460.06 1277.47,1460.07 1279.54,1460.05 1281.61,1460.01 1283.68,1459.94 1285.75,1459.86 1287.83,1459.74 1289.9,1459.61 1291.97,1459.45 1294.04,1459.27 
  1296.11,1459.07 1298.19,1458.85 1300.26,1458.61 1302.33,1458.35 1304.4,1458.07 1306.47,1457.77 1308.55,1457.45 1310.62,1457.11 1312.69,1456.75 1314.76,1456.37 
  1316.83,1455.98 1318.9,1455.56 1320.98,1455.13 1323.05,1454.67 1325.12,1454.2 1327.19,1453.7 1329.26,1453.19 1331.34,1452.65 1333.41,1452.09 1335.48,1451.51 
  1337.55,1450.9 1339.62,1450.27 1341.69,1449.62 1343.77,1448.94 1345.84,1448.23 1347.91,1447.5 1349.98,1446.73 1352.05,1445.93 1354.13,1445.1 1356.2,1444.23 
  1358.27,1443.33 1360.34,1442.38 1362.41,1441.4 1364.48,1440.36 1366.56,1439.28 1368.63,1438.14 1370.7,1436.95 1372.77,1435.69 1374.84,1434.37 1376.92,1432.98 
  1378.99,1431.5 1381.06,1429.94 1383.13,1428.28 1385.2,1426.52 1387.28,1424.65 1389.35,1422.64 1391.42,1420.5 1393.49,1418.2 1395.56,1415.73 1397.63,1413.06 
  1399.71,1410.18 1401.78,1407.06 1403.85,1403.67 1405.92,1399.99 1407.99,1395.96 1410.07,1391.56 1412.14,1386.73 1414.21,1381.44 1416.28,1375.62 1418.35,1369.23 
  1420.42,1362.21 1422.5,1354.49 1424.57,1346.03 1426.64,1336.78 1428.71,1326.69 1430.78,1315.75 1432.86,1303.93 1434.93,1291.24 1437,1277.71 1439.07,1263.38 
  1441.14,1248.3 1443.22,1232.56 1445.29,1216.24 1447.36,1199.45 1449.43,1182.28 1451.5,1164.84 1453.57,1147.25 1455.65,1129.61 1457.72,1112.03 1459.79,1094.59 
  1461.86,1077.39 1463.93,1060.52 1466.01,1044.04 1468.08,1028.03 1470.15,1012.55 1472.22,997.664 1474.29,983.41 1476.36,969.84 1478.44,956.993 1480.51,944.907 
  1482.58,933.615 1484.65,923.147 1486.72,913.53 1488.8,904.789 1490.87,896.949 1492.94,890.029 1495.01,884.051 1497.08,879.031 1499.15,874.988 1501.23,871.936 
  1503.3,869.888 1505.37,868.856 1507.44,868.85 1509.51,869.874 1511.59,871.932 1513.66,875.021 1515.73,879.136 1517.8,884.265 1519.87,890.39 1521.95,897.486 
  1524.02,905.521 1526.09,914.455 1528.16,924.24 1530.23,934.823 1532.3,946.139 1534.38,958.121 1536.45,970.693 1538.52,983.778 1540.59,997.294 1542.66,1011.16 
  1544.74,1025.29 1546.81,1039.6 1548.88,1054.03 1550.95,1068.49 1553.02,1082.91 1555.09,1097.25 1557.17,1111.43 1559.24,1125.42 1561.31,1139.16 1563.38,1152.63 
  1565.45,1165.79 1567.53,1178.63 1569.6,1191.11 1571.67,1203.23 1573.74,1214.98 1575.81,1226.35 1577.89,1237.33 1579.96,1247.93 1582.03,1258.14 1584.1,1267.98 
  1586.17,1277.43 1588.24,1286.52 1590.32,1295.25 1592.39,1303.62 1594.46,1311.64 1596.53,1319.33 1598.6,1326.69 1600.68,1333.74 1602.75,1340.47 1604.82,1346.92 
  1606.89,1353.07 1608.96,1358.95 1611.03,1364.56 1613.11,1369.91 1615.18,1375.02 1617.25,1379.89 1619.32,1384.53 1621.39,1388.95 1623.47,1393.16 1625.54,1397.17 
  1627.61,1400.98 1629.68,1404.61 1631.75,1408.05 1633.83,1411.33 1635.9,1414.44 1637.97,1417.4 1640.04,1420.2 1642.11,1422.86 1644.18,1425.39 1646.26,1427.78 
  1648.33,1430.04 1650.4,1432.18 1652.47,1434.21 1654.54,1436.13 1656.62,1437.94 1658.69,1439.65 1660.76,1441.26 1662.83,1442.78 1664.9,1444.21 1666.97,1445.55 
  1669.05,1446.82 1671.12,1448 1673.19,1449.12 1675.26,1450.16 1677.33,1451.13 1679.41,1452.04 1681.48,1452.89 1683.55,1453.67 1685.62,1454.4 1687.69,1455.08 
  1689.76,1455.7 1691.84,1456.27 1693.91,1456.8 1695.98,1457.27 1698.05,1457.71 1700.12,1458.1 1702.2,1458.45 1704.27,1458.77 1706.34,1459.04 1708.41,1459.28 
  1710.48,1459.49 1712.56,1459.66 1714.63,1459.8 1716.7,1459.91 1718.77,1459.99 1720.84,1460.04 1722.91,1460.06 1724.99,1460.06 1727.06,1460.03 1729.13,1459.98 
  1731.2,1459.9 1733.27,1459.8 1735.35,1459.68 1737.42,1459.53 1739.49,1459.36 1741.56,1459.17 1743.63,1458.96 1745.7,1458.73 1747.78,1458.48 1749.85,1458.21 
  1751.92,1457.92 1753.99,1457.61 1756.06,1457.28 1758.14,1456.93 1760.21,1456.56 1762.28,1456.18 1764.35,1455.77 1766.42,1455.35 1768.5,1454.9 1770.57,1454.44 
  1772.64,1453.95 1774.71,1453.45 1776.78,1452.92 1778.85,1452.37 1780.93,1451.8 1783,1451.21 1785.07,1450.59 1787.14,1449.95 1789.21,1449.28 1791.29,1448.59 
  1793.36,1447.87 1795.43,1447.11 1797.5,1446.33 1799.57,1445.52 1801.64,1444.67 1803.72,1443.78 1805.79,1442.86 1807.86,1441.89 1809.93,1440.88 1812,1439.82 
  1814.08,1438.71 1816.15,1437.55 1818.22,1436.33 1820.29,1435.04 1822.36,1433.68 1824.43,1432.24 1826.51,1430.73 1828.58,1429.12 1830.65,1427.41 1832.72,1425.59 
  1834.79,1423.65 1836.87,1421.58 1838.94,1419.36 1841.01,1416.98 1843.08,1414.41 1845.15,1411.64 1847.23,1408.65 1849.3,1405.39 1851.37,1401.86 1853.44,1398.01 
  1855.51,1393.8 1857.58,1389.19 1859.66,1384.13 1861.73,1378.58 1863.8,1372.49 1865.87,1365.78 1867.94,1358.42 1870.02,1350.33 1872.09,1341.48 1874.16,1331.81 
  1876.23,1321.3 1878.3,1309.91 1880.37,1297.66 1882.45,1284.54 1884.52,1270.6 1886.59,1255.89 1888.66,1240.47 1890.73,1224.42 1892.81,1207.85 1894.88,1190.85 
  1896.95,1173.53 1899.02,1156.01 1901.09,1138.38 1903.17,1120.76 1905.24,1103.23 1907.31,1085.91 1909.38,1068.86 1911.45,1052.18 1913.52,1035.93 1915.6,1020.18 
  1917.67,1004.99 1919.74,990.413 1921.81,976.497 1923.88,963.286 1925.96,950.817 1928.03,939.127 1930.1,928.245 1932.17,918.202 1934.24,909.023 1936.31,900.732 
  1938.39,893.352 1940.46,886.904 1942.53,881.405 1944.6,876.875 1946.67,873.328 1948.75,870.779 1950.82,869.241 1952.89,868.724 1954.96,869.236 1957.03,870.78 
  1959.11,873.357 1961.18,876.963 1963.25,881.59 1965.32,887.223 1967.39,893.839 1969.46,901.412 1971.54,909.904 1973.61,919.273 1975.68,929.467 1977.75,940.426 
  1979.82,952.086 1981.9,964.375 1983.97,977.215 1986.04,990.527 1988.11,1004.23 1990.18,1018.24 1992.25,1032.47 1994.33,1046.85 1996.4,1061.3 1998.47,1075.75 
  2000.54,1090.14 2002.61,1104.4 2004.69,1118.49 2006.76,1132.36 2008.83,1145.97 2010.9,1159.29 2012.97,1172.29 2015.04,1184.95 2017.12,1197.26 2019.19,1209.19 
  2021.26,1220.75 2023.33,1231.92 2025.4,1242.71 2027.48,1253.11 2029.55,1263.14 2031.62,1272.78 2033.69,1282.05 2035.76,1290.95 2037.84,1299.5 2039.91,1307.7 
  2041.98,1315.55 2044.05,1323.07 2046.12,1330.27 2048.19,1337.16 2050.27,1343.75 2052.34,1350.05 2054.41,1356.06 2056.48,1361.8 2058.55,1367.28 2060.63,1372.51 
  2062.7,1377.5 2064.77,1382.25 2066.84,1386.78 2068.91,1391.09 2070.98,1395.2 2073.06,1399.11 2075.13,1402.83 2077.2,1406.36 2079.27,1409.72 2081.34,1412.92 
  2083.42,1415.95 2085.49,1418.83 2087.56,1421.56 2089.63,1424.15 2091.7,1426.6 2093.78,1428.93 2095.85,1431.13 2097.92,1433.22 2099.99,1435.19 2102.06,1437.05 
  2104.13,1438.81 2106.21,1440.47 2108.28,1442.03 2110.35,1443.51 2112.42,1444.89 2114.49,1446.2 2116.57,1447.42 2118.64,1448.57 2120.71,1449.65 2122.78,1450.66 
  2124.85,1451.6 2126.92,1452.47 2129,1453.29 2131.07,1454.05 2133.14,1454.75 2135.21,1455.4 2137.28,1455.99 2139.36,1456.54 2141.43,1457.04 2143.5,1457.5 
  2145.57,1457.91 2147.64,1458.28 2149.71,1458.62 2151.79,1458.91 2153.86,1459.17 2155.93,1459.39 2158,1459.58 2160.07,1459.73 2162.15,1459.86 2164.22,1459.95 
  2166.29,1460.02 2168.36,1460.06 2170.43,1460.07 2172.51,1460.05 2174.58,1460.01 2176.65,1459.94 2178.72,1459.85 2180.79,1459.74 2182.86,1459.61 2184.94,1459.45 
  2187.01,1459.27 2189.08,1459.07 2191.15,1458.85 2193.22,1458.61 2195.3,1458.35 2197.37,1458.07 2199.44,1457.77 2201.51,1457.45 2203.58,1457.11 2205.65,1456.75 
  2207.73,1456.37 2209.8,1455.98 2211.87,1455.56 2213.94,1455.13 2216.01,1454.67 2218.09,1454.2 2220.16,1453.7 2222.23,1453.18 2224.3,1452.65 2226.37,1452.09 
  2228.45,1451.5 2230.52,1450.9 2232.59,1450.27 2234.66,1449.62 2236.73,1448.94 2238.8,1448.23 2240.88,1447.49 2242.95,1446.72 2245.02,1445.93 2247.09,1445.1 
  2249.16,1444.23 2251.24,1443.32 2253.31,1442.38 2255.38,1441.39 2257.45,1440.36 2259.52,1439.27 2261.59,1438.14 2263.67,1436.94 2265.74,1435.69 2267.81,1434.36 
  2269.88,1432.97 2271.95,1431.49 2274.03,1429.93 2276.1,1428.27 2278.17,1426.51 2280.24,1424.63 2282.31,1422.63 2284.38,1420.49 2286.46,1418.19 2288.53,1415.71 
  2290.6,1413.05 
  "/>
<path clip-path="url(#clip620)" d="
M1746.92 250.738 L2279.55 250.738 L2279.55 95.2176 L1746.92 95.2176  Z
  " fill="#ffffff" fill-rule="evenodd" fill-opacity="1"/>
<polyline clip-path="url(#clip620)" style="stroke:#000000; stroke-linecap:butt; stroke-linejoin:round; stroke-width:4; stroke-opacity:1; fill:none" points="
  1746.92,250.738 2279.55,250.738 2279.55,95.2176 1746.92,95.2176 1746.92,250.738 
  "/>
<polyline clip-path="url(#clip620)" style="stroke:#0000ff; stroke-linecap:butt; stroke-linejoin:round; stroke-width:4; stroke-opacity:1; fill:none" points="
  1771.33,147.058 1917.74,147.058 
  "/>
<path clip-path="url(#clip620)" d="M1942.14 129.778 L1963.99 129.778 L1963.99 133.713 L1946.81 133.713 L1946.81 143.944 L1963.27 143.944 L1963.27 147.879 L1946.81 147.879 L1946.81 160.402 L1964.41 160.402 L1964.41 164.338 L1942.14 164.338 L1942.14 129.778 Z" fill="#000000" fill-rule="evenodd" fill-opacity="1" /><path clip-path="url(#clip620)" d="M1991.1 160.449 L1991.1 174.199 L1986.81 174.199 L1986.81 138.412 L1991.1 138.412 L1991.1 142.347 Q1992.44 140.032 1994.48 138.921 Q1996.54 137.787 1999.38 137.787 Q2004.1 137.787 2007.04 141.537 Q2010.01 145.287 2010.01 151.398 Q2010.01 157.509 2007.04 161.259 Q2004.1 165.009 1999.38 165.009 Q1996.54 165.009 1994.48 163.898 Q1992.44 162.763 1991.1 160.449 M2005.59 151.398 Q2005.59 146.699 2003.64 144.037 Q2001.72 141.352 1998.34 141.352 Q1994.96 141.352 1993.02 144.037 Q1991.1 146.699 1991.1 151.398 Q1991.1 156.097 1993.02 158.782 Q1994.96 161.444 1998.34 161.444 Q2001.72 161.444 2003.64 158.782 Q2005.59 156.097 2005.59 151.398 Z" fill="#000000" fill-rule="evenodd" fill-opacity="1" /><path clip-path="url(#clip620)" d="M2027.11 141.398 Q2023.69 141.398 2021.7 144.083 Q2019.71 146.745 2019.71 151.398 Q2019.71 156.051 2021.67 158.736 Q2023.66 161.398 2027.11 161.398 Q2030.52 161.398 2032.51 158.713 Q2034.5 156.027 2034.5 151.398 Q2034.5 146.791 2032.51 144.106 Q2030.52 141.398 2027.11 141.398 M2027.11 137.787 Q2032.67 137.787 2035.84 141.398 Q2039.01 145.009 2039.01 151.398 Q2039.01 157.764 2035.84 161.398 Q2032.67 165.009 2027.11 165.009 Q2021.54 165.009 2018.36 161.398 Q2015.22 157.764 2015.22 151.398 Q2015.22 145.009 2018.36 141.398 Q2021.54 137.787 2027.11 137.787 Z" fill="#000000" fill-rule="evenodd" fill-opacity="1" /><path clip-path="url(#clip620)" d="M2050.19 160.449 L2050.19 174.199 L2045.91 174.199 L2045.91 138.412 L2050.19 138.412 L2050.19 142.347 Q2051.54 140.032 2053.57 138.921 Q2055.63 137.787 2058.48 137.787 Q2063.2 137.787 2066.14 141.537 Q2069.1 145.287 2069.1 151.398 Q2069.1 157.509 2066.14 161.259 Q2063.2 165.009 2058.48 165.009 Q2055.63 165.009 2053.57 163.898 Q2051.54 162.763 2050.19 160.449 M2064.68 151.398 Q2064.68 146.699 2062.74 144.037 Q2060.82 141.352 2057.44 141.352 Q2054.06 141.352 2052.11 144.037 Q2050.19 146.699 2050.19 151.398 Q2050.19 156.097 2052.11 158.782 Q2054.06 161.444 2057.44 161.444 Q2060.82 161.444 2062.74 158.782 Q2064.68 156.097 2064.68 151.398 Z" fill="#000000" fill-rule="evenodd" fill-opacity="1" /><path clip-path="url(#clip620)" d="M2075.72 154.106 L2075.72 138.412 L2079.98 138.412 L2079.98 153.944 Q2079.98 157.625 2081.42 159.476 Q2082.85 161.305 2085.72 161.305 Q2089.17 161.305 2091.16 159.106 Q2093.18 156.907 2093.18 153.111 L2093.18 138.412 L2097.44 138.412 L2097.44 164.338 L2093.18 164.338 L2093.18 160.356 Q2091.63 162.717 2089.57 163.875 Q2087.53 165.009 2084.82 165.009 Q2080.35 165.009 2078.04 162.231 Q2075.72 159.453 2075.72 154.106 M2086.44 137.787 L2086.44 137.787 Z" fill="#000000" fill-rule="evenodd" fill-opacity="1" /><path clip-path="url(#clip620)" d="M2106.21 128.319 L2110.47 128.319 L2110.47 164.338 L2106.21 164.338 L2106.21 128.319 Z" fill="#000000" fill-rule="evenodd" fill-opacity="1" /><path clip-path="url(#clip620)" d="M2131.16 151.305 Q2126 151.305 2124.01 152.486 Q2122.02 153.666 2122.02 156.514 Q2122.02 158.782 2123.5 160.125 Q2125.01 161.444 2127.58 161.444 Q2131.12 161.444 2133.25 158.944 Q2135.4 156.421 2135.4 152.254 L2135.4 151.305 L2131.16 151.305 M2139.66 149.546 L2139.66 164.338 L2135.4 164.338 L2135.4 160.402 Q2133.94 162.763 2131.77 163.898 Q2129.59 165.009 2126.44 165.009 Q2122.46 165.009 2120.1 162.787 Q2117.76 160.541 2117.76 156.791 Q2117.76 152.416 2120.68 150.194 Q2123.62 147.972 2129.43 147.972 L2135.4 147.972 L2135.4 147.555 Q2135.4 144.615 2133.46 143.018 Q2131.53 141.398 2128.04 141.398 Q2125.82 141.398 2123.71 141.93 Q2121.6 142.463 2119.66 143.527 L2119.66 139.592 Q2122 138.69 2124.2 138.25 Q2126.4 137.787 2128.48 137.787 Q2134.1 137.787 2136.88 140.703 Q2139.66 143.62 2139.66 149.546 Z" fill="#000000" fill-rule="evenodd" fill-opacity="1" /><path clip-path="url(#clip620)" d="M2152.65 131.051 L2152.65 138.412 L2161.42 138.412 L2161.42 141.722 L2152.65 141.722 L2152.65 155.796 Q2152.65 158.967 2153.5 159.87 Q2154.38 160.773 2157.04 160.773 L2161.42 160.773 L2161.42 164.338 L2157.04 164.338 Q2152.11 164.338 2150.24 162.509 Q2148.36 160.657 2148.36 155.796 L2148.36 141.722 L2145.24 141.722 L2145.24 138.412 L2148.36 138.412 L2148.36 131.051 L2152.65 131.051 Z" fill="#000000" fill-rule="evenodd" fill-opacity="1" /><path clip-path="url(#clip620)" d="M2167.02 138.412 L2171.28 138.412 L2171.28 164.338 L2167.02 164.338 L2167.02 138.412 M2167.02 128.319 L2171.28 128.319 L2171.28 133.713 L2167.02 133.713 L2167.02 128.319 Z" fill="#000000" fill-rule="evenodd" fill-opacity="1" /><path clip-path="url(#clip620)" d="M2190.24 141.398 Q2186.81 141.398 2184.82 144.083 Q2182.83 146.745 2182.83 151.398 Q2182.83 156.051 2184.8 158.736 Q2186.79 161.398 2190.24 161.398 Q2193.64 161.398 2195.63 158.713 Q2197.62 156.027 2197.62 151.398 Q2197.62 146.791 2195.63 144.106 Q2193.64 141.398 2190.24 141.398 M2190.24 137.787 Q2195.79 137.787 2198.96 141.398 Q2202.14 145.009 2202.14 151.398 Q2202.14 157.764 2198.96 161.398 Q2195.79 165.009 2190.24 165.009 Q2184.66 165.009 2181.49 161.398 Q2178.34 157.764 2178.34 151.398 Q2178.34 145.009 2181.49 141.398 Q2184.66 137.787 2190.24 137.787 Z" fill="#000000" fill-rule="evenodd" fill-opacity="1" /><path clip-path="url(#clip620)" d="M2230.75 148.689 L2230.75 164.338 L2226.49 164.338 L2226.49 148.828 Q2226.49 145.148 2225.05 143.319 Q2223.62 141.49 2220.75 141.49 Q2217.3 141.49 2215.31 143.69 Q2213.32 145.889 2213.32 149.685 L2213.32 164.338 L2209.03 164.338 L2209.03 138.412 L2213.32 138.412 L2213.32 142.44 Q2214.84 140.102 2216.9 138.944 Q2218.99 137.787 2221.7 137.787 Q2226.16 137.787 2228.46 140.565 Q2230.75 143.319 2230.75 148.689 Z" fill="#000000" fill-rule="evenodd" fill-opacity="1" /><polyline clip-path="url(#clip620)" style="stroke:#ff0000; stroke-linecap:butt; stroke-linejoin:round; stroke-width:4; stroke-opacity:1; fill:none" points="
  1771.33,198.898 1917.74,198.898 
  "/>
<path clip-path="url(#clip620)" d="M1942.14 181.618 L1946.81 181.618 L1946.81 216.178 L1942.14 216.178 L1942.14 181.618 Z" fill="#000000" fill-rule="evenodd" fill-opacity="1" /><path clip-path="url(#clip620)" d="M1975.12 212.289 L1975.12 226.039 L1970.84 226.039 L1970.84 190.252 L1975.12 190.252 L1975.12 194.187 Q1976.47 191.872 1978.5 190.761 Q1980.56 189.627 1983.41 189.627 Q1988.13 189.627 1991.07 193.377 Q1994.04 197.127 1994.04 203.238 Q1994.04 209.349 1991.07 213.099 Q1988.13 216.849 1983.41 216.849 Q1980.56 216.849 1978.5 215.738 Q1976.47 214.603 1975.12 212.289 M1989.61 203.238 Q1989.61 198.539 1987.67 195.877 Q1985.75 193.192 1982.37 193.192 Q1978.99 193.192 1977.04 195.877 Q1975.12 198.539 1975.12 203.238 Q1975.12 207.937 1977.04 210.622 Q1978.99 213.284 1982.37 213.284 Q1985.75 213.284 1987.67 210.622 Q1989.61 207.937 1989.61 203.238 Z" fill="#000000" fill-rule="evenodd" fill-opacity="1" /><path clip-path="url(#clip620)" d="M2011.14 193.238 Q2007.72 193.238 2005.73 195.923 Q2003.73 198.585 2003.73 203.238 Q2003.73 207.891 2005.7 210.576 Q2007.69 213.238 2011.14 213.238 Q2014.54 213.238 2016.54 210.553 Q2018.53 207.867 2018.53 203.238 Q2018.53 198.631 2016.54 195.946 Q2014.54 193.238 2011.14 193.238 M2011.14 189.627 Q2016.7 189.627 2019.87 193.238 Q2023.04 196.849 2023.04 203.238 Q2023.04 209.604 2019.87 213.238 Q2016.7 216.849 2011.14 216.849 Q2005.56 216.849 2002.39 213.238 Q1999.24 209.604 1999.24 203.238 Q1999.24 196.849 2002.39 193.238 Q2005.56 189.627 2011.14 189.627 Z" fill="#000000" fill-rule="evenodd" fill-opacity="1" /><path clip-path="url(#clip620)" d="M2034.22 212.289 L2034.22 226.039 L2029.94 226.039 L2029.94 190.252 L2034.22 190.252 L2034.22 194.187 Q2035.56 191.872 2037.6 190.761 Q2039.66 189.627 2042.51 189.627 Q2047.23 189.627 2050.17 193.377 Q2053.13 197.127 2053.13 203.238 Q2053.13 209.349 2050.17 213.099 Q2047.23 216.849 2042.51 216.849 Q2039.66 216.849 2037.6 215.738 Q2035.56 214.603 2034.22 212.289 M2048.71 203.238 Q2048.71 198.539 2046.77 195.877 Q2044.85 193.192 2041.47 193.192 Q2038.09 193.192 2036.14 195.877 Q2034.22 198.539 2034.22 203.238 Q2034.22 207.937 2036.14 210.622 Q2038.09 213.284 2041.47 213.284 Q2044.85 213.284 2046.77 210.622 Q2048.71 207.937 2048.71 203.238 Z" fill="#000000" fill-rule="evenodd" fill-opacity="1" /><path clip-path="url(#clip620)" d="M2059.75 205.946 L2059.75 190.252 L2064.01 190.252 L2064.01 205.784 Q2064.01 209.465 2065.45 211.316 Q2066.88 213.145 2069.75 213.145 Q2073.2 213.145 2075.19 210.946 Q2077.21 208.747 2077.21 204.951 L2077.21 190.252 L2081.47 190.252 L2081.47 216.178 L2077.21 216.178 L2077.21 212.196 Q2075.66 214.557 2073.6 215.715 Q2071.56 216.849 2068.85 216.849 Q2064.38 216.849 2062.07 214.071 Q2059.75 211.293 2059.75 205.946 M2070.47 189.627 L2070.47 189.627 Z" fill="#000000" fill-rule="evenodd" fill-opacity="1" /><path clip-path="url(#clip620)" d="M2090.24 180.159 L2094.5 180.159 L2094.5 216.178 L2090.24 216.178 L2090.24 180.159 Z" fill="#000000" fill-rule="evenodd" fill-opacity="1" /><path clip-path="url(#clip620)" d="M2115.19 203.145 Q2110.03 203.145 2108.04 204.326 Q2106.05 205.506 2106.05 208.354 Q2106.05 210.622 2107.53 211.965 Q2109.03 213.284 2111.6 213.284 Q2115.15 213.284 2117.28 210.784 Q2119.43 208.261 2119.43 204.094 L2119.43 203.145 L2115.19 203.145 M2123.69 201.386 L2123.69 216.178 L2119.43 216.178 L2119.43 212.242 Q2117.97 214.603 2115.79 215.738 Q2113.62 216.849 2110.47 216.849 Q2106.49 216.849 2104.13 214.627 Q2101.79 212.381 2101.79 208.631 Q2101.79 204.256 2104.71 202.034 Q2107.65 199.812 2113.46 199.812 L2119.43 199.812 L2119.43 199.395 Q2119.43 196.455 2117.48 194.858 Q2115.56 193.238 2112.07 193.238 Q2109.85 193.238 2107.74 193.77 Q2105.63 194.303 2103.69 195.367 L2103.69 191.432 Q2106.03 190.53 2108.22 190.09 Q2110.42 189.627 2112.51 189.627 Q2118.13 189.627 2120.91 192.543 Q2123.69 195.46 2123.69 201.386 Z" fill="#000000" fill-rule="evenodd" fill-opacity="1" /><path clip-path="url(#clip620)" d="M2136.67 182.891 L2136.67 190.252 L2145.45 190.252 L2145.45 193.562 L2136.67 193.562 L2136.67 207.636 Q2136.67 210.807 2137.53 211.71 Q2138.41 212.613 2141.07 212.613 L2145.45 212.613 L2145.45 216.178 L2141.07 216.178 Q2136.14 216.178 2134.27 214.349 Q2132.39 212.497 2132.39 207.636 L2132.39 193.562 L2129.27 193.562 L2129.27 190.252 L2132.39 190.252 L2132.39 182.891 L2136.67 182.891 Z" fill="#000000" fill-rule="evenodd" fill-opacity="1" /><path clip-path="url(#clip620)" d="M2151.05 190.252 L2155.31 190.252 L2155.31 216.178 L2151.05 216.178 L2151.05 190.252 M2151.05 180.159 L2155.31 180.159 L2155.31 185.553 L2151.05 185.553 L2151.05 180.159 Z" fill="#000000" fill-rule="evenodd" fill-opacity="1" /><path clip-path="url(#clip620)" d="M2174.27 193.238 Q2170.84 193.238 2168.85 195.923 Q2166.86 198.585 2166.86 203.238 Q2166.86 207.891 2168.83 210.576 Q2170.82 213.238 2174.27 213.238 Q2177.67 213.238 2179.66 210.553 Q2181.65 207.867 2181.65 203.238 Q2181.65 198.631 2179.66 195.946 Q2177.67 193.238 2174.27 193.238 M2174.27 189.627 Q2179.82 189.627 2182.99 193.238 Q2186.16 196.849 2186.16 203.238 Q2186.16 209.604 2182.99 213.238 Q2179.82 216.849 2174.27 216.849 Q2168.69 216.849 2165.52 213.238 Q2162.37 209.604 2162.37 203.238 Q2162.37 196.849 2165.52 193.238 Q2168.69 189.627 2174.27 189.627 Z" fill="#000000" fill-rule="evenodd" fill-opacity="1" /><path clip-path="url(#clip620)" d="M2214.78 200.529 L2214.78 216.178 L2210.52 216.178 L2210.52 200.668 Q2210.52 196.988 2209.08 195.159 Q2207.65 193.33 2204.78 193.33 Q2201.33 193.33 2199.34 195.53 Q2197.34 197.729 2197.34 201.525 L2197.34 216.178 L2193.06 216.178 L2193.06 190.252 L2197.34 190.252 L2197.34 194.28 Q2198.87 191.942 2200.93 190.784 Q2203.02 189.627 2205.72 189.627 Q2210.19 189.627 2212.48 192.405 Q2214.78 195.159 2214.78 200.529 Z" fill="#000000" fill-rule="evenodd" fill-opacity="1" /></svg>
